<svg width="78" height="78" viewBox="0 0 78 78" fill="none" xmlns="http://www.w3.org/2000/svg">
<rect x="0.5" y="0.5" width="77" height="77" rx="38.5" fill="#F7F6FE" stroke="#A397F8"/>
<path fill-rule="evenodd" clip-rule="evenodd" d="M39 66.5C42.6114 66.5 46.1873 65.7887 49.5238 64.4067C52.8603 63.0247 55.8918 60.9991 58.4454 58.4454C60.9991 55.8918 63.0247 52.8603 64.4067 49.5238C65.7887 46.1873 66.5 42.6114 66.5 39C66.5 35.3886 65.7887 31.8127 64.4067 28.4762C63.0247 25.1398 60.9991 22.1082 58.4454 19.5546C55.8918 17.001 52.8603 14.9753 49.5238 13.5933C46.1873 12.2113 42.6114 11.5 39 11.5C31.7065 11.5 24.7118 14.3973 19.5546 19.5546C14.3973 24.7118 11.5 31.7065 11.5 39C11.5 46.2935 14.3973 53.2882 19.5546 58.4454C24.7118 63.6027 31.7065 66.5 39 66.5ZM47.9017 15.9747C48.9735 17.1268 49.9411 18.4695 50.7895 19.9492C52.3466 22.6435 53.5613 25.8737 54.3472 29.4463C55.5838 29.7559 56.7409 30.1013 57.8186 30.4824C59.8074 31.1879 61.5549 32.0215 62.9393 32.9832C61.9725 29.1536 60.1028 25.6112 57.4867 22.6522C54.8705 19.6932 51.5839 17.4035 47.9017 15.9747ZM63.2966 43.3526C61.8586 44.4214 59.983 45.3413 57.8186 46.1065C56.8302 46.4558 55.7723 46.7753 54.645 47.0651C53.8888 51.2331 52.561 54.9844 50.7925 58.0508C49.9802 59.4793 49.0105 60.8125 47.9017 62.0253C51.8537 60.4944 55.3455 57.9727 58.0415 54.7026C60.7376 51.4325 62.5472 47.524 63.2966 43.3526ZM30.1013 62.0253C28.9914 60.8126 28.0208 59.4795 27.2075 58.0508C25.442 54.9844 24.1112 51.2331 23.355 47.0651C22.2839 46.791 21.2251 46.4712 20.1814 46.1065C18.017 45.3413 16.1414 44.4214 14.7034 43.3526C15.4528 47.524 17.2624 51.4325 19.9585 54.7026C22.6545 57.9727 26.1493 60.4944 30.1013 62.0253ZM15.0577 32.9802C16.4421 32.0215 18.1897 31.1879 20.1784 30.4824C21.2561 30.1033 22.4133 29.7579 23.6498 29.4463C24.4357 25.8737 25.6504 22.6435 27.2045 19.9492C28.0169 18.5207 28.9865 17.1875 30.0953 15.9747C26.4146 17.404 23.1294 19.6935 20.5143 22.652C17.8993 25.6104 16.0303 29.1518 15.0637 32.9802M48.3483 21.3544C49.5659 23.4682 50.5692 25.9809 51.2927 28.7854C47.7003 28.1382 44.061 27.7857 40.4112 27.7315V14.6022C43.3228 15.1679 46.1214 17.49 48.3483 21.3544ZM51.9328 31.7863C48.1388 31.0187 44.2817 30.6051 40.4112 30.5508V46.038C44.7191 45.9546 48.7234 45.4932 52.1561 44.7578C52.4081 42.908 52.5352 40.9887 52.5371 39C52.5371 36.4843 52.3258 34.0639 51.9328 31.7863ZM37.5888 14.5992V27.7285C33.9399 27.7839 30.3016 28.1373 26.7103 28.7854C27.4308 25.9809 28.437 23.4652 29.6517 21.3544C31.8786 17.493 34.6772 15.1679 37.5888 14.5992ZM37.5888 30.5508C33.7183 30.6051 29.8612 31.0187 26.0672 31.7863C25.6613 34.1694 25.4592 36.5827 25.4629 39C25.4629 40.9858 25.5939 42.912 25.8439 44.7548C29.2766 45.4932 33.2809 45.9546 37.5888 46.035V30.5508ZM21.1222 33.141C21.7474 32.9226 22.4053 32.7142 23.096 32.5158C22.5546 36.3286 22.4926 40.1942 22.9114 44.0225C22.2862 43.8379 21.6898 43.6464 21.1222 43.4479C18.8595 42.647 17.1328 41.7301 15.9955 40.7803C14.8493 39.8247 14.4623 38.9792 14.4623 38.2944C14.4623 37.6097 14.8493 36.7642 15.9955 35.8085C17.1328 34.8588 18.8595 33.9418 21.1222 33.1439M29.6517 56.6486C28.2257 54.1716 27.0914 51.1409 26.362 47.7409C29.75 48.3929 33.5607 48.7859 37.5888 48.8603V63.4038C34.6772 62.8351 31.8786 60.5129 29.6517 56.6486ZM40.4112 63.4008V48.8544C44.1784 48.7991 47.9341 48.4246 51.638 47.735C50.9116 51.1379 49.7743 54.1656 48.3483 56.6426C46.1214 60.504 43.3228 62.8321 40.4112 63.4008ZM55.3565 39C55.3565 40.7148 55.2672 42.389 55.0886 44.0225C55.7138 43.8399 56.3102 43.6483 56.8778 43.4479C59.1405 42.647 60.8672 41.7301 62.0045 40.7803C63.1507 39.8247 63.5377 38.9792 63.5377 38.2944C63.5377 37.6097 63.1507 36.7642 62.0045 35.8085C60.8672 34.8588 59.1405 33.9418 56.8778 33.1439C56.2526 32.9236 55.5947 32.7142 54.904 32.5158C55.2017 34.5998 55.3595 36.7701 55.3595 39" fill="#8E8BDF"/>
</svg>
