<svg width="21" height="20" viewBox="0 0 21 20" fill="none" xmlns="http://www.w3.org/2000/svg">
<path d="M0.75 2C0.75 1.0335 1.5335 0.25 2.5 0.25H18.5C19.4665 0.25 20.25 1.0335 20.25 2V18C20.25 18.9665 19.4665 19.75 18.5 19.75H2.5C1.5335 19.75 0.75 18.9665 0.75 18V2Z" stroke="white" stroke-opacity="0.2" stroke-width="0.5"/>
<g clip-path="url(#clip0_1487_1397)">
<mask id="mask0_1487_1397" style="mask-type:luminance" maskUnits="userSpaceOnUse" x="3" y="3" width="15" height="14">
<path d="M17.5 3H3.5V17H17.5V3Z" fill="white"/>
</mask>
<g mask="url(#mask0_1487_1397)">
<path d="M10.5 17C14.366 17 17.5 13.866 17.5 10C17.5 6.13401 14.366 3 10.5 3C6.63401 3 3.5 6.13401 3.5 10C3.5 13.866 6.63401 17 10.5 17Z" fill="#AC55FF"/>
<mask id="mask1_1487_1397" style="mask-type:alpha" maskUnits="userSpaceOnUse" x="3" y="3" width="15" height="14">
<path d="M10.5 17C14.366 17 17.5 13.866 17.5 10C17.5 6.13401 14.366 3 10.5 3C6.63401 3 3.5 6.13401 3.5 10C3.5 13.866 6.63401 17 10.5 17Z" fill="#AC55FF"/>
</mask>
<g mask="url(#mask1_1487_1397)">
<path d="M10.8744 17.5045C13.3516 17.5045 14.6324 16.7368 15.019 15.967C15.0413 15.9226 14.9986 15.8724 14.9516 15.888C14.5156 16.0322 14.1901 15.7643 14.1536 15.455C14.1536 15.455 14.0317 14.1436 13.5956 14.0156C13.6215 13.9625 13.7266 13.5434 13.4017 13.1561C13.4905 12.8822 13.4171 12.7018 13.3506 12.5655C13.4316 12.4662 13.4939 12.3381 13.5208 12.2133C13.5274 12.1837 13.5273 12.1576 13.5513 12.1297C13.7045 12.0024 13.8736 11.8974 13.9764 11.711C14.1617 11.3743 14.0376 10.9897 13.8129 10.7059C13.7902 10.6746 13.7723 10.6595 13.7707 10.579C13.7712 10.4415 13.7463 10.2999 13.6724 10.1837C13.6347 10.1246 13.5852 10.0736 13.5334 10.0262C13.3176 9.82495 13.0594 9.67633 12.8115 9.51582C12.7774 9.49398 12.7377 9.46491 12.7229 9.42518C12.6448 9.1346 12.443 8.90983 12.192 8.84866C12.1866 8.65403 11.9814 8.35891 11.671 8.35891C11.5763 8.35891 11.498 8.41037 11.4491 8.32172C11.3356 8.10645 11.1093 8.06644 10.9913 8.061C10.9714 8.06004 10.9659 8.03338 10.9839 8.02485C11.0217 8.00672 11.079 7.98168 11.164 7.94889C11.5903 7.7448 11.4139 6.58228 11.2394 5.96885C11.1577 5.73982 10.9507 5.08852 10.4435 5.04547C10.4086 5.04254 10.3729 5.04334 10.3392 5.05307C10.2415 5.08119 10.1692 5.15944 10.1183 5.26781C9.95054 5.60506 9.90857 6.51537 9.84688 6.90461C9.75936 7.45966 9.68009 8.05512 9.40364 8.29919C9.28587 7.98848 9.11546 7.84452 9.02236 7.84996C8.9412 7.86905 9.05099 8.02674 9.00423 8.25933C8.97172 8.39317 8.89764 8.51808 8.77148 8.51808C8.40177 8.51808 8.06886 6.66879 7.96946 5.55787C7.96678 5.52882 7.96399 5.49989 7.95866 5.4711C7.90991 5.20263 7.76868 5.04414 7.61946 5.04414C7.5438 5.04414 7.27214 5.01654 6.96105 5.50575C6.74722 5.88725 6.61135 6.28609 6.59814 7.02886C6.59842 7.77734 6.93229 8.27786 7.0675 8.52407C7.62014 9.43306 7.69395 9.74682 7.58936 10.301C7.48304 10.8382 7.80731 11.1402 7.80731 11.1402C7.76148 11.2113 7.701 11.4016 7.68703 11.6105C7.67809 11.7435 7.70527 11.9821 7.76881 12.1298C7.62933 12.4304 7.63267 12.6693 7.63267 12.8199C7.63267 13.1689 7.48039 13.311 7.28239 13.3731C7.33582 13.5635 7.69088 13.6655 7.89632 13.462C7.8357 14.0599 7.72364 14.5984 7.56723 15.2649C7.47 15.7212 7.48638 15.9769 7.56004 16.1934C7.59321 16.2909 7.64519 16.3808 7.70874 16.4618C8.46641 17.4284 9.88806 17.5045 10.8744 17.5045ZM10.8731 16.1999C10.6001 16.1555 10.3448 16.0194 10.1584 15.8133C9.66171 15.9778 9.14532 15.5598 9.30225 15.0079C9.3273 14.9357 9.43495 14.9622 9.42429 15.0375C9.40884 15.1347 9.42669 15.2341 9.46839 15.3197C9.57938 15.5734 9.91018 15.6416 10.1129 15.4649C10.1879 15.3988 10.2964 15.424 10.3473 15.5059C10.7913 16.1086 11.7126 15.9956 12.0216 15.319C12.0669 15.2245 12.0964 15.1244 12.1136 15.0207C12.1257 14.9471 12.236 14.9541 12.2391 15.0285C12.264 15.7565 11.5826 16.3137 10.873 16.2L10.8731 16.1999Z" fill="#240642"/>
<path d="M13.6586 11.0011C13.6112 11.0011 13.5602 11.0673 13.5471 11.1705C13.5189 11.3159 13.5286 11.5848 13.399 11.5848C13.3093 11.5848 13.3012 11.4046 13.1505 11.2385C12.9942 11.0773 12.7701 11.0609 12.6264 10.945C12.5465 10.8895 12.4989 10.8213 12.5041 10.7041C12.5041 10.7041 12.5211 10.5175 12.7729 10.5516C12.8927 10.5641 13.0868 10.5933 13.207 10.607C13.4216 10.6313 13.474 10.4716 13.4804 10.4174C13.4941 10.2902 13.3591 10.1849 13.2737 10.1108C13.1658 10.0168 13.0482 9.93239 12.9263 9.85668C12.9042 9.84295 12.8816 9.82871 12.8591 9.8143C12.5534 9.61928 12.0098 9.29282 11.705 9.66555C11.5957 9.81189 11.5483 9.98052 11.5141 10.1202C11.4508 10.3759 11.318 10.4745 11.2236 10.6305C11.0737 10.8781 10.9708 11.1592 10.9629 11.4484C10.9616 11.8661 11.2198 12.2752 11.6317 12.5308C11.9736 12.7102 12.149 12.7102 12.286 12.6736C12.311 12.6651 12.3659 12.6268 12.3282 12.5635C12.3214 12.55 12.3024 12.5204 12.2908 12.5012C12.2517 12.4294 12.3052 12.3637 12.3843 12.4251C12.4364 12.4659 12.4896 12.5067 12.5508 12.5316C12.6024 12.5526 12.6612 12.5608 12.7145 12.5467C12.7145 12.5467 12.7145 12.5467 12.7146 12.5467C12.7769 12.5263 12.8085 12.4854 12.8121 12.4331C12.8157 12.3707 12.7875 12.3225 12.7407 12.2968C12.6696 12.2621 12.5121 12.1755 12.4456 12.1264C12.3706 12.0739 12.2904 11.9954 12.2625 11.9658C12.1718 11.8693 12.1458 11.775 12.0893 11.775C12.0799 11.7756 12.0707 11.7809 12.0643 11.7881C12.0289 11.8259 12.0286 11.8883 12.0269 11.9239C12.0257 11.9502 12.0298 11.9902 11.993 11.9902C11.9019 11.9902 11.9022 11.8001 11.9023 11.7485C11.9023 11.6778 11.9281 11.4945 12.0373 11.4945C12.0709 11.4945 12.1168 11.5397 12.1348 11.5575C12.3753 11.8245 12.6548 12.0321 13.0089 12.0321C13.28 12.0321 13.5065 11.879 13.6489 11.7354C13.7604 11.6234 13.8338 11.4832 13.8387 11.3383C13.8418 11.2465 13.7977 11.0012 13.6586 11.0012V11.0011ZM12.1052 11.2495C12.0723 11.2678 12.033 11.2451 11.9971 11.2334C11.9251 11.2097 11.8433 11.2337 11.7839 11.2809C11.7431 11.3134 11.7119 11.3559 11.6866 11.4018C11.659 11.4519 11.6538 11.518 11.5945 11.518C11.5458 11.518 11.5213 11.4504 11.5159 11.4226C11.4873 11.2713 11.5603 11.1029 11.6961 11.0304C11.8318 10.9579 12.0201 10.9963 12.1079 11.1226C12.1215 11.1422 12.133 11.1644 12.1346 11.1882C12.1362 11.2121 12.1262 11.2379 12.1053 11.2495H12.1052Z" fill="white"/>
<path d="M10.3189 9.51798C10.1893 9.51986 10.0635 9.57556 9.97189 9.66968C9.92032 9.72259 9.80548 9.89376 9.81666 10.1575C9.8148 10.1963 9.76378 10.2102 9.74327 10.1772C9.66053 10.0289 9.65574 9.87429 9.68785 9.76019C9.7591 9.52957 9.96041 9.33789 10.2325 9.33789C10.5894 9.33789 10.6789 9.57143 10.6968 9.64381C10.7053 9.67381 10.6683 9.69593 10.6455 9.6746C10.5863 9.61956 10.4951 9.51798 10.3187 9.51798H10.3189Z" fill="white"/>
<path d="M10.3483 10.0402C10.263 10.0478 10.1958 9.9928 10.1882 9.90762C10.1807 9.8239 10.2371 9.75485 10.3223 9.74725C10.4076 9.73965 10.4767 9.79765 10.4842 9.88134C10.4918 9.96666 10.4336 10.0326 10.3485 10.0402H10.3483Z" fill="white"/>
<path d="M7.55372 8.44611C7.42797 8.44611 7.01562 7.77693 7.01562 6.83209C7.01562 6.40807 7.12448 5.95551 7.32231 5.95551C7.44407 5.95551 7.47166 6.21492 7.47727 6.29183C7.54134 7.10337 7.43675 7.65456 7.58943 8.3897C7.59955 8.43277 7.57357 8.44622 7.55372 8.44622V8.44611Z" fill="white"/>
</g>
</g>
</g>
<defs>
<clipPath id="clip0_1487_1397">
<rect width="14" height="14" fill="white" transform="translate(3.5 3)"/>
</clipPath>
</defs>
</svg>
