<svg width="21" height="20" viewBox="0 0 21 20" fill="none" xmlns="http://www.w3.org/2000/svg">
<path d="M1 2C1 1.0335 1.7835 0.25 2.75 0.25H18.75C19.7165 0.25 20.5 1.0335 20.5 2V18C20.5 18.9665 19.7165 19.75 18.75 19.75H2.75C1.7835 19.75 1 18.9665 1 18V2Z" stroke="white" stroke-opacity="0.2" stroke-width="0.5"/>
<g clip-path="url(#clip0_1487_2996)">
<path d="M10.7538 16.4564L13.3298 8.52832H8.17773L10.7538 16.4564Z" fill="#E24329"/>
<path d="M10.7546 16.4563L8.1785 8.52826H4.56836L10.7546 16.4563Z" fill="#FC6D26"/>
<path d="M4.56769 8.52826L3.7849 10.9376C3.75009 11.0447 3.75009 11.1601 3.78488 11.2672C3.81968 11.3743 3.88749 11.4676 3.9786 11.5338L10.7539 16.4564L4.56764 8.52831L4.56769 8.52826Z" fill="#FCA326"/>
<path d="M4.56836 8.52833H8.1785L6.62707 3.75329C6.54723 3.50758 6.19963 3.50764 6.11984 3.75329L4.56836 8.52833Z" fill="#E24329"/>
<path d="M10.754 16.4563L13.33 8.52826H16.9402L10.754 16.4563Z" fill="#FC6D26"/>
<path d="M16.9401 8.52826L17.7229 10.9376C17.7577 11.0447 17.7577 11.1601 17.7229 11.2672C17.6881 11.3743 17.6203 11.4676 17.5291 11.5338L10.7539 16.4564L16.9401 8.52831V8.52826Z" fill="#FCA326"/>
<path d="M16.9403 8.52833H13.3301L14.8816 3.75329C14.9614 3.50758 15.309 3.50764 15.3888 3.75329L16.9403 8.52833Z" fill="#E24329"/>
</g>
<defs>
<clipPath id="clip0_1487_2996">
<rect width="14" height="12.908" fill="white" transform="translate(3.75 3.54602)"/>
</clipPath>
</defs>
</svg>
