<svg width="865" height="262" viewBox="0 0 865 262" fill="none" xmlns="http://www.w3.org/2000/svg">
<mask id="mask0_3315_2818" style="mask-type:alpha" maskUnits="userSpaceOnUse" x="0" y="0" width="865" height="262">
<rect x="0.897461" y="0.848633" width="863.619" height="260.495" fill="url(#paint0_linear_3315_2818)"/>
</mask>
<g mask="url(#mask0_3315_2818)">
<g filter="url(#filter0_i_3315_2818)">
<path d="M119.398 261.884C118.468 253.823 117.848 248.552 117.538 238.941C106.066 255.373 87.1531 265.605 61.109 265.605C33.2046 265.605 1.88965 253.203 1.88965 217.237C1.88965 184.682 27.6237 163.599 84.3626 163.599H117.228V159.568C117.228 139.415 113.507 118.022 80.332 118.022C56.1482 118.022 44.0563 130.114 40.9558 147.787H6.85043C11.1911 114.921 34.1347 91.3577 81.5722 91.3577C136.761 91.3577 151.953 122.673 151.953 157.088V226.849C151.953 238.631 152.573 251.963 153.814 261.884H119.398ZM71.0305 238.941C95.2143 238.941 117.848 227.159 117.848 187.163H88.7033C55.8381 187.163 37.2352 194.914 37.2352 213.827C37.2352 229.329 49.3271 238.941 71.0305 238.941Z" fill="#010024"/>
<path d="M188.578 37.4092H229.194V73.6849H188.578V37.4092ZM191.678 95.0782H226.404V261.884H191.678V95.0782Z" fill="#010024"/>
<path d="M264.273 37.4092H298.999V165.769L366.899 95.0782H409.996L346.746 160.809L415.887 261.884H374.961L323.182 185.612L298.999 210.416V261.884H264.273V37.4092Z" fill="#010024"/>
<path d="M435.951 37.4092H476.567V73.6849H435.951V37.4092ZM439.051 95.0782H473.777V261.884H439.051V95.0782Z" fill="#010024"/>
<path d="M667.211 37.4092V261.884H632.485V235.84C622.254 252.893 605.201 265.605 579.157 265.605C536.06 265.605 506.605 232.12 506.605 178.481C506.605 124.843 536.06 91.3577 579.157 91.3577C605.201 91.3577 622.254 104.07 632.485 121.122V37.4092H667.211ZM587.838 237.391C616.983 237.391 634.345 213.207 634.345 178.481C634.345 143.756 616.983 119.572 587.838 119.572C557.763 119.572 541.951 145.306 541.951 178.481C541.951 211.657 557.763 237.391 587.838 237.391Z" fill="#010024"/>
<path d="M776.457 265.605C725.919 265.605 695.224 231.5 695.224 178.481C695.224 125.153 725.919 91.3577 776.457 91.3577C826.995 91.3577 857.69 125.153 857.69 178.481C857.69 231.5 826.995 265.605 776.457 265.605ZM776.457 237.391C805.601 237.391 822.344 215.687 822.344 178.481C822.344 140.965 805.601 119.572 776.457 119.572C747.312 119.572 730.569 140.965 730.569 178.481C730.569 215.687 747.312 237.391 776.457 237.391Z" fill="#010024"/>
</g>
<path d="M81.5723 91.0479C109.225 91.0479 126.918 98.8951 137.691 111.112C148.458 123.322 152.264 139.841 152.264 157.088V226.849C152.264 238.622 152.883 251.941 154.121 261.846L154.165 262.194H119.122L119.09 261.92C118.189 254.117 117.58 248.919 117.26 239.868C105.675 255.953 86.8448 265.915 61.1094 265.915C47.1187 265.915 32.2464 262.807 20.8623 255.166C9.46243 247.514 1.5791 235.327 1.5791 217.237C1.57913 200.866 8.05683 187.358 21.6729 177.955C35.2719 168.564 55.9624 163.289 84.3623 163.289H116.918V159.568C116.918 149.496 115.984 139.191 110.96 131.406C105.956 123.652 96.8469 118.332 80.332 118.332C68.2915 118.332 59.2981 121.342 52.9336 126.518C46.5701 131.693 42.8011 139.06 41.2607 147.84L41.2158 148.097H6.49707L6.54297 147.746C8.72155 131.251 15.5732 117.066 27.8535 107.008C40.1317 96.9514 57.8034 91.0479 81.5723 91.0479ZM667.521 37.0986V262.194H632.175V236.941C621.835 253.6 604.841 265.915 579.157 265.915C557.523 265.915 539.296 257.507 526.483 242.357C513.675 227.213 506.295 205.355 506.295 178.481C506.295 151.607 513.675 129.749 526.483 114.604C539.296 99.4552 557.523 91.0479 579.157 91.0479C604.841 91.048 621.834 103.362 632.175 120.021V37.0986H667.521ZM776.457 91.0479C801.798 91.0479 822.194 99.5229 836.253 114.711C850.309 129.896 858 151.759 858 178.481C858 205.049 850.308 226.912 836.253 242.136C822.195 257.362 801.799 265.915 776.457 265.915C751.115 265.915 730.719 257.362 716.661 242.136C702.606 226.912 694.914 205.049 694.914 178.481C694.914 151.759 702.605 129.896 716.661 114.711C730.72 99.5228 751.116 91.0479 776.457 91.0479ZM226.714 94.7686V262.194H191.368V94.7686H226.714ZM299.309 37.0986V164.999L366.676 94.8633L366.768 94.7686H410.725L410.22 95.293L347.144 160.842L416.143 261.709L416.475 262.194H374.796L374.704 262.059L323.139 186.101L299.309 210.542V262.194H263.963V37.0986H299.309ZM474.087 94.7686V262.194H438.741V94.7686H474.087ZM88.7031 187.473C72.2844 187.473 59.4752 189.411 50.7812 193.681C46.4392 195.813 43.1337 198.523 40.9131 201.854C38.6937 205.183 37.5449 209.152 37.5449 213.827C37.545 221.488 40.5289 227.672 46.1816 231.95C51.8454 236.236 60.2194 238.631 71.0303 238.631C83.077 238.631 94.6947 235.696 103.299 227.821C111.853 219.993 117.478 207.235 117.536 187.473H88.7031ZM587.838 119.882C572.901 119.882 561.522 126.267 553.867 136.769C546.204 147.281 542.261 161.938 542.261 178.481C542.261 195.025 546.204 209.682 553.867 220.194C561.522 230.696 572.902 237.08 587.838 237.08C602.315 237.08 613.851 231.078 621.775 220.769C629.706 210.45 634.035 195.796 634.035 178.481C634.035 161.167 629.707 146.512 621.775 136.193C613.851 125.884 602.315 119.882 587.838 119.882ZM776.457 119.882C761.968 119.882 750.591 125.196 742.828 135.149C735.057 145.114 730.88 159.764 730.88 178.481C730.88 197.043 735.057 211.695 742.829 221.698C750.593 231.691 761.97 237.08 776.457 237.08C790.944 237.08 802.321 231.691 810.085 221.698C817.857 211.695 822.034 197.043 822.034 178.481C822.034 159.764 817.856 145.114 810.085 135.149C802.322 125.196 790.946 119.882 776.457 119.882ZM229.504 37.0986V73.9951H188.268V37.0986H229.504ZM476.877 37.0986V73.9951H435.641V37.0986H476.877Z" stroke="url(#paint1_linear_3315_2818)" stroke-width="0.620197"/>
</g>
<defs>
<filter id="filter0_i_3315_2818" x="1.26953" y="36.7891" width="857.04" height="233.778" filterUnits="userSpaceOnUse" color-interpolation-filters="sRGB">
<feFlood flood-opacity="0" result="BackgroundImageFix"/>
<feBlend mode="normal" in="SourceGraphic" in2="BackgroundImageFix" result="shape"/>
<feColorMatrix in="SourceAlpha" type="matrix" values="0 0 0 0 0 0 0 0 0 0 0 0 0 0 0 0 0 0 127 0" result="hardAlpha"/>
<feOffset dy="4.34138"/>
<feGaussianBlur stdDeviation="6.20197"/>
<feComposite in2="hardAlpha" operator="arithmetic" k2="-1" k3="1"/>
<feColorMatrix type="matrix" values="0 0 0 0 1 0 0 0 0 1 0 0 0 0 1 0 0 0 0.2 0"/>
<feBlend mode="normal" in2="shape" result="effect1_innerShadow_3315_2818"/>
</filter>
<linearGradient id="paint0_linear_3315_2818" x1="432.707" y1="223.616" x2="432.707" y2="71.4587" gradientUnits="userSpaceOnUse">
<stop stop-opacity="0"/>
<stop offset="1"/>
</linearGradient>
<linearGradient id="paint1_linear_3315_2818" x1="429.79" y1="37.4092" x2="429.79" y2="179.76" gradientUnits="userSpaceOnUse">
<stop stop-color="white" stop-opacity="0.65"/>
<stop offset="1" stop-color="white" stop-opacity="0"/>
</linearGradient>
</defs>
</svg>
