<svg width="160" height="20" viewBox="0 0 160 20" fill="none" xmlns="http://www.w3.org/2000/svg">
<path d="M17.8261 0H0V6.27986H17.8261V0Z" fill="#6551F3"/>
<path d="M0 12.17C5.07132 7.59294 12.7547 7.59294 17.8261 12.17V19.9965L17.8226 20L8.91304 10.9837L0.00349485 20L0 19.9965V12.17Z" fill="#6551F3"/>
<path d="M38.7501 13.9484H38.368C38.0071 13.9484 37.7311 13.8846 37.54 13.7358C37.3489 13.5869 37.2428 13.2892 37.2428 12.8213V9.01459C37.2428 7.69606 36.8394 6.63273 36.0539 5.80334C35.2684 4.97394 33.9734 4.56988 32.1901 4.56988C30.5766 4.56988 29.3241 4.93141 28.4537 5.63321C27.5832 6.35627 27.0525 7.33453 26.9039 8.58925H29.7275C29.9185 7.33453 30.7253 6.7178 32.1052 6.7178C32.9331 6.7178 33.5276 6.93047 33.846 7.3558C34.1645 7.78113 34.3343 8.37659 34.3343 9.14219V9.46118H32.0415C30.237 9.46118 28.857 9.78018 27.9229 10.4394C26.9888 11.0987 26.5218 11.9919 26.5218 13.119C26.5218 14.2674 26.9464 15.1181 27.7955 15.671C28.6447 16.2452 29.6425 16.5217 30.8102 16.5217C32.6147 16.5217 33.9522 15.8837 34.7801 14.5864C34.9712 15.2031 35.2896 15.6497 35.7355 15.8837C36.1813 16.1389 36.8394 16.2665 37.7523 16.2665H38.7501V13.9484ZM31.4683 14.3738C30.8314 14.3738 30.3431 14.2249 30.0034 13.9484C29.6425 13.672 29.4727 13.3104 29.4727 12.8638C29.4727 11.8218 30.4493 11.2901 32.4236 11.2901H34.3768C34.3768 12.3534 34.1008 13.1403 33.5276 13.6294C32.9544 14.1186 32.275 14.3738 31.4683 14.3738Z" fill="white"/>
<path d="M40.5739 0.869502V3.61289H43.4823V0.869502H40.5739ZM40.5739 4.82508V16.2665H43.4823V4.82508H40.5739Z" fill="white"/>
<path d="M45.9598 0.869502V16.2665H48.8682V12.9702L50.3543 11.439L53.6449 16.2665H57.0842L52.3287 9.33358L56.6596 4.82508H53.0717L48.8682 9.24852V0.869502H45.9598Z" fill="white"/>
<path d="M58.4657 0.869502V3.61289H61.3742V0.869502H58.4657ZM58.4657 4.82508V16.2665H61.3742V4.82508H58.4657Z" fill="white"/>
<path d="M74.973 0.869502H72.0646V6.50514C71.2791 5.20788 70.069 4.56988 68.4767 4.56988C66.9694 4.56988 65.7381 5.10154 64.8252 6.18614C63.9123 7.27073 63.4453 8.73812 63.4453 10.5458C63.4453 12.3534 63.9123 13.7996 64.8252 14.8842C65.7381 15.9687 66.9694 16.5217 68.4767 16.5217C70.069 16.5217 71.2791 15.8837 72.0646 14.5864V16.2665H74.973V0.869502ZM69.2622 14.2036C68.3069 14.2036 67.6063 13.8634 67.118 13.1616C66.6298 12.481 66.3962 11.6091 66.3962 10.5458C66.3962 9.48245 66.6298 8.61052 67.118 7.90873C67.6063 7.20693 68.3069 6.86667 69.2622 6.86667C70.1964 6.86667 70.9182 7.20693 71.4489 7.86619C71.9584 8.54672 72.2132 9.43992 72.2132 10.5458C72.2132 11.6516 71.9584 12.5448 71.4489 13.2041C70.9182 13.8634 70.1964 14.2036 69.2622 14.2036Z" fill="white"/>
<path d="M82.5076 16.5217C84.2909 16.5217 85.6921 15.99 86.7323 14.9054C87.7514 13.8208 88.2609 12.3747 88.2609 10.5458C88.2609 8.71686 87.7514 7.27073 86.7323 6.18614C85.6921 5.10154 84.2909 4.56988 82.5076 4.56988C80.7031 4.56988 79.3019 5.10154 78.2829 6.18614C77.2639 7.27073 76.7544 8.71686 76.7544 10.5458C76.7544 12.3747 77.2639 13.8208 78.2829 14.9054C79.3019 15.99 80.7031 16.5217 82.5076 16.5217ZM82.5076 14.2036C81.5947 14.2036 80.9154 13.8846 80.4271 13.2466C79.9388 12.6299 79.7053 11.7154 79.7053 10.5458C79.7053 9.37612 79.9388 8.46166 80.4271 7.82366C80.9154 7.18566 81.5947 6.86667 82.5076 6.86667C83.4205 6.86667 84.0999 7.18566 84.5881 7.82366C85.0764 8.46166 85.31 9.37612 85.31 10.5458C85.31 11.7154 85.0764 12.6299 84.5881 13.2466C84.0999 13.8846 83.4205 14.2036 82.5076 14.2036Z" fill="white"/>
<path d="M152.627 16.2442H150.298V1.61889H152.627V6.81089C152.627 8.05404 152.565 8.84799 152.356 9.96578L152.533 10.0494L157.151 5.27523H159.773L155.887 9.24496L159.898 16.2442H157.412L154.226 10.5508L152.627 12.1596V16.2442Z" fill="white"/>
<path d="M143.366 16.4845C139.573 16.4845 137.568 14.4996 137.568 10.7597V10.6553C137.568 6.98848 139.594 5.03495 143.355 5.03495C146.75 5.03495 148.631 6.56017 148.892 9.40166L146.562 9.73596C146.406 7.61528 145.34 6.54972 143.345 6.54972C141.13 6.54972 139.97 7.89734 139.97 10.5299V10.8851C139.97 13.5803 141.14 14.9593 143.376 14.9593C145.35 14.9593 146.468 13.9669 146.625 12.0865L148.996 12.4312C148.662 15.0638 146.709 16.4845 143.366 16.4845Z" fill="white"/>
<path d="M129.236 16.495C127.084 16.495 125.872 15.513 125.872 13.7579V13.7161C125.872 11.5223 127.752 10.5821 130.813 10.0076L133.874 9.42255V8.68084C133.874 7.18697 133.038 6.50793 131.262 6.50793C129.267 6.50793 128.254 7.42724 128.4 9.30764L126.102 9.00469C125.956 6.48704 127.784 5.0454 131.304 5.0454C134.626 5.0454 136.204 6.23632 136.204 8.68084V13.9773C136.204 14.8339 136.329 14.928 137.562 14.9593L137.217 16.4427C137.039 16.4741 136.81 16.495 136.58 16.495C134.323 16.4845 133.958 15.6279 134.438 13.4968C133.749 15.3876 131.659 16.495 129.236 16.495ZM130.113 14.8862C132.119 14.8862 133.874 13.4968 133.874 11.5223V10.8955L131.607 11.3343C129.351 11.7731 128.254 12.2849 128.254 13.5176V13.5594C128.254 14.4265 128.912 14.8862 130.113 14.8862Z" fill="white"/>
<path d="M122.346 16.4636C120.12 16.4636 119.003 15.4503 119.003 13.2983V6.86312H117.049V5.27523H119.003V2.72624L121.343 2.0681V5.27523H125.407V6.86312H121.343V12.9535C121.343 14.2176 121.938 14.7504 123.16 14.7504C123.85 14.7504 124.202 14.723 124.955 14.3783V15.9715C124.255 16.3371 123.484 16.4636 122.346 16.4636Z" fill="white"/>
<path d="M114.651 16.4636C112.426 16.4636 111.308 15.4503 111.308 13.2983V6.86312H109.355V5.27523H111.308V2.72624L113.648 2.0681V5.27523H117.216V6.86312H113.648V12.9535C113.648 14.2176 114.244 14.7713 115.466 14.7713C116.155 14.7713 116.464 14.723 117.216 14.3783V15.9715C116.516 16.3371 115.79 16.4636 114.651 16.4636Z" fill="white"/>
<path d="M101.576 16.495C99.4244 16.495 98.3249 15.4503 98.3249 13.6952C98.3249 11.5014 100.093 10.5821 103.154 10.0076L106.215 9.42255V8.68084C106.215 7.18697 105.379 6.50793 103.603 6.50793C101.608 6.50793 100.594 7.42724 100.741 9.30764L98.4424 9.00469C98.2961 6.48704 100.124 5.0454 103.645 5.0454C106.967 5.0454 108.544 6.23632 108.544 8.68084V13.9773C108.544 14.8339 108.67 14.928 109.902 14.9593L109.558 16.4427C109.38 16.4741 109.15 16.495 108.92 16.495C106.664 16.4845 106.089 15.5756 106.57 13.4445C105.88 15.3354 104 16.495 101.576 16.495ZM102.454 14.8862C104.46 14.8862 106.215 13.4968 106.215 11.5223V10.8955L103.948 11.3343C101.691 11.7731 100.594 12.2849 100.594 13.5176V13.5594C100.594 14.4265 101.253 14.8862 102.454 14.8862Z" fill="white"/>
<path d="M93.4573 16.2451H91.4968L96.1645 0.841837H98.1249L93.4573 16.2451Z" fill="white"/>
</svg>
