<svg width="148" height="20" viewBox="0 0 148 20" fill="none" xmlns="http://www.w3.org/2000/svg">
<path d="M17.8261 0H0V6.27986H17.8261V0Z" fill="#6551F3"/>
<path d="M0 12.17C5.07132 7.59294 12.7547 7.59294 17.8261 12.17V19.9965L17.8226 20L8.91304 10.9837L0.00349485 20L0 19.9965V12.17Z" fill="#6551F3"/>
<path d="M38.7502 13.9483H38.3681C38.0072 13.9483 37.7312 13.8845 37.5401 13.7357C37.3491 13.5868 37.2429 13.2891 37.2429 12.8212V9.01451C37.2429 7.69598 36.8396 6.63266 36.0541 5.80326C35.2686 4.97386 33.9735 4.5698 32.1902 4.5698C30.5768 4.5698 29.3242 4.93133 28.4538 5.63313C27.5834 6.35619 27.0526 7.33445 26.904 8.58918H29.7276C29.9187 7.33445 30.7254 6.71772 32.1053 6.71772C32.9333 6.71772 33.5277 6.93039 33.8462 7.35572C34.1646 7.78105 34.3344 8.37651 34.3344 9.14211V9.46111H32.0416C30.2371 9.46111 28.8572 9.7801 27.9231 10.4394C26.9889 11.0986 26.5219 11.9918 26.5219 13.1189C26.5219 14.2673 26.9465 15.118 27.7957 15.6709C28.6449 16.2451 29.6427 16.5216 30.8103 16.5216C32.6148 16.5216 33.9523 15.8836 34.7803 14.5863C34.9713 15.2031 35.2898 15.6497 35.7356 15.8836C36.1814 16.1388 36.8396 16.2664 37.7524 16.2664H38.7502V13.9483ZM31.4684 14.3737C30.8315 14.3737 30.3433 14.2248 30.0036 13.9483C29.6427 13.6719 29.4728 13.3103 29.4728 12.8638C29.4728 11.8217 30.4494 11.29 32.4238 11.29H34.3769C34.3769 12.3534 34.1009 13.1402 33.5277 13.6293C32.9545 14.1185 32.2752 14.3737 31.4684 14.3737Z" fill="white"/>
<path d="M40.574 0.869422V3.61281H43.4825V0.869422H40.574ZM40.574 4.825V16.2664H43.4825V4.825H40.574Z" fill="white"/>
<path d="M45.9599 0.869422V16.2664H48.8684V12.9701L50.3545 11.4389L53.6451 16.2664H57.0843L52.3288 9.3335L56.6597 4.825H53.0719L48.8684 9.24844V0.869422H45.9599Z" fill="white"/>
<path d="M58.4659 0.869422V3.61281H61.3744V0.869422H58.4659ZM58.4659 4.825V16.2664H61.3744V4.825H58.4659Z" fill="white"/>
<path d="M74.9732 0.869422H72.0647V6.50506C71.2792 5.2078 70.0691 4.5698 68.4769 4.5698C66.9696 4.5698 65.7382 5.10146 64.8254 6.18606C63.9125 7.27065 63.4454 8.73804 63.4454 10.5457C63.4454 12.3534 63.9125 13.7995 64.8254 14.8841C65.7382 15.9687 66.9696 16.5216 68.4769 16.5216C70.0691 16.5216 71.2792 15.8836 72.0647 14.5863V16.2664H74.9732V0.869422ZM69.2624 14.2035C68.307 14.2035 67.6065 13.8633 67.1182 13.1615C66.6299 12.481 66.3964 11.609 66.3964 10.5457C66.3964 9.48237 66.6299 8.61044 67.1182 7.90865C67.6065 7.20685 68.307 6.86659 69.2624 6.86659C70.1965 6.86659 70.9183 7.20685 71.449 7.86611C71.9586 8.54664 72.2133 9.43984 72.2133 10.5457C72.2133 11.6516 71.9586 12.5448 71.449 13.204C70.9183 13.8633 70.1965 14.2035 69.2624 14.2035Z" fill="white"/>
<path d="M82.5078 16.5216C84.2911 16.5216 85.6922 15.9899 86.7325 14.9053C87.7515 13.8207 88.261 12.3746 88.261 10.5457C88.261 8.71678 87.7515 7.27065 86.7325 6.18606C85.6922 5.10146 84.2911 4.5698 82.5078 4.5698C80.7032 4.5698 79.3021 5.10146 78.283 6.18606C77.264 7.27065 76.7545 8.71678 76.7545 10.5457C76.7545 12.3746 77.264 13.8207 78.283 14.9053C79.3021 15.9899 80.7032 16.5216 82.5078 16.5216ZM82.5078 14.2035C81.5949 14.2035 80.9155 13.8845 80.4272 13.2465C79.939 12.6298 79.7054 11.7154 79.7054 10.5457C79.7054 9.37604 79.939 8.46158 80.4272 7.82358C80.9155 7.18558 81.5949 6.86659 82.5078 6.86659C83.4206 6.86659 84.1 7.18558 84.5883 7.82358C85.0766 8.46158 85.3101 9.37604 85.3101 10.5457C85.3101 11.7154 85.0766 12.6298 84.5883 13.2465C84.1 13.8845 83.4206 14.2035 82.5078 14.2035Z" fill="white"/>
<path d="M145.271 12.5147L147.611 12.8385C147.1 15.2308 145.125 16.4844 141.949 16.4844C138.241 16.4844 136.099 14.5622 136.099 10.979V10.5403C136.099 7.04063 138.23 5.03487 141.97 5.03487C145.48 5.03487 147.528 6.91527 147.528 10.112C147.528 10.5089 147.507 10.885 147.455 11.3133H138.471C138.523 13.7683 139.829 14.9697 142.002 14.9697C143.819 14.9697 144.958 14.1966 145.271 12.5147ZM141.991 6.54964C139.933 6.54964 138.69 7.67788 138.502 9.77766H145.167V9.6523C145.167 7.67788 144.018 6.54964 141.991 6.54964Z" fill="white"/>
<path d="M128.133 16.4426C124.936 16.4426 123.223 14.4891 123.223 10.8432V10.6656C123.223 7.0093 124.936 5.07666 128.133 5.07666C130.484 5.07666 132.019 6.19446 132.719 8.11664C132.354 6.84215 132.416 5.82882 132.416 4.67969V1.61881H134.756V16.2442H132.374C132.385 15.5965 132.354 14.5831 132.698 13.434C131.977 15.3666 130.452 16.4426 128.133 16.4426ZM128.917 14.9488C131.184 14.9488 132.416 13.5176 132.416 10.8746V10.6134C132.416 7.98084 131.184 6.5392 128.917 6.5392C126.744 6.5392 125.595 7.90771 125.595 10.5821V10.9059C125.595 13.5803 126.744 14.9488 128.917 14.9488Z" fill="white"/>
<path d="M116.458 16.4844C112.875 16.4844 110.66 14.604 110.66 10.8955V10.6238C110.66 6.92572 112.875 5.03487 116.458 5.03487C120.031 5.03487 122.246 6.92572 122.246 10.6238V10.8955C122.246 14.604 120.031 16.4844 116.458 16.4844ZM116.458 14.9592C118.568 14.9592 119.843 13.7161 119.843 10.9999V10.5194C119.843 7.79279 118.568 6.54964 116.458 6.54964C114.338 6.54964 113.063 7.79279 113.063 10.5194V10.9999C113.063 13.7161 114.338 14.9592 116.458 14.9592Z" fill="white"/>
<path d="M104.104 16.4844C100.312 16.4844 98.3066 14.4996 98.3066 10.7596V10.6552C98.3066 6.9884 100.333 5.03487 104.094 5.03487C107.489 5.03487 109.37 6.56009 109.631 9.40158L107.301 9.73588C107.144 7.6152 106.079 6.54964 104.084 6.54964C101.869 6.54964 100.709 7.89726 100.709 10.5298V10.885C100.709 13.5803 101.879 14.9592 104.115 14.9592C106.089 14.9592 107.207 13.9668 107.364 12.0864L109.735 12.4311C109.401 15.0637 107.447 16.4844 104.104 16.4844Z" fill="white"/>
<path d="M93.4573 16.0881H91.4968L96.1645 0.684808H98.1249L93.4573 16.0881Z" fill="white"/>
</svg>
