<svg width="152" height="20" viewBox="0 0 152 20" fill="none" xmlns="http://www.w3.org/2000/svg">
<path d="M17.8261 0H0V6.27986H17.8261V0Z" fill="#6551F3"/>
<path d="M0 12.17C5.07132 7.59294 12.7547 7.59294 17.8261 12.17V19.9965L17.8226 20L8.91304 10.9837L0.00349485 20L0 19.9965V12.17Z" fill="#6551F3"/>
<path d="M38.7501 13.9484H38.368C38.0071 13.9484 37.7311 13.8846 37.54 13.7358C37.3489 13.5869 37.2428 13.2892 37.2428 12.8213V9.01459C37.2428 7.69606 36.8394 6.63273 36.0539 5.80334C35.2684 4.97394 33.9734 4.56988 32.1901 4.56988C30.5766 4.56988 29.3241 4.93141 28.4537 5.63321C27.5832 6.35627 27.0525 7.33453 26.9039 8.58925H29.7274C29.9185 7.33453 30.7252 6.7178 32.1052 6.7178C32.9331 6.7178 33.5276 6.93047 33.846 7.3558C34.1645 7.78113 34.3343 8.37659 34.3343 9.14219V9.46118H32.0415C30.237 9.46118 28.857 9.78018 27.9229 10.4394C26.9888 11.0987 26.5218 11.9919 26.5218 13.119C26.5218 14.2674 26.9464 15.1181 27.7955 15.671C28.6447 16.2452 29.6425 16.5217 30.8102 16.5217C32.6147 16.5217 33.9522 15.8837 34.7801 14.5864C34.9712 15.2031 35.2896 15.6497 35.7355 15.8837C36.1813 16.1389 36.8394 16.2665 37.7523 16.2665H38.7501V13.9484ZM31.4683 14.3738C30.8314 14.3738 30.3431 14.2249 30.0034 13.9484C29.6425 13.672 29.4727 13.3104 29.4727 12.8638C29.4727 11.8218 30.4493 11.2901 32.4236 11.2901H34.3768C34.3768 12.3534 34.1008 13.1403 33.5276 13.6294C32.9544 14.1186 32.275 14.3738 31.4683 14.3738Z" fill="white"/>
<path d="M40.5739 0.869502V3.61289H43.4823V0.869502H40.5739ZM40.5739 4.82508V16.2665H43.4823V4.82508H40.5739Z" fill="white"/>
<path d="M45.9598 0.869502V16.2665H48.8682V12.9702L50.3543 11.439L53.6449 16.2665H57.0841L52.3287 9.33358L56.6596 4.82508H53.0717L48.8682 9.24852V0.869502H45.9598Z" fill="white"/>
<path d="M58.4657 0.869502V3.61289H61.3742V0.869502H58.4657ZM58.4657 4.82508V16.2665H61.3742V4.82508H58.4657Z" fill="white"/>
<path d="M74.973 0.869502H72.0646V6.50514C71.2791 5.20788 70.069 4.56988 68.4767 4.56988C66.9694 4.56988 65.7381 5.10154 64.8252 6.18614C63.9123 7.27073 63.4453 8.73812 63.4453 10.5458C63.4453 12.3534 63.9123 13.7996 64.8252 14.8842C65.7381 15.9687 66.9694 16.5217 68.4767 16.5217C70.069 16.5217 71.2791 15.8837 72.0646 14.5864V16.2665H74.973V0.869502ZM69.2622 14.2036C68.3069 14.2036 67.6063 13.8634 67.118 13.1616C66.6297 12.481 66.3962 11.6091 66.3962 10.5458C66.3962 9.48245 66.6297 8.61052 67.118 7.90873C67.6063 7.20693 68.3069 6.86667 69.2622 6.86667C70.1963 6.86667 70.9182 7.20693 71.4489 7.86619C71.9584 8.54672 72.2132 9.43992 72.2132 10.5458C72.2132 11.6516 71.9584 12.5448 71.4489 13.2041C70.9182 13.8634 70.1963 14.2036 69.2622 14.2036Z" fill="white"/>
<path d="M82.5076 16.5217C84.2909 16.5217 85.6921 15.99 86.7323 14.9054C87.7514 13.8208 88.2609 12.3747 88.2609 10.5458C88.2609 8.71686 87.7514 7.27073 86.7323 6.18614C85.6921 5.10154 84.2909 4.56988 82.5076 4.56988C80.7031 4.56988 79.3019 5.10154 78.2829 6.18614C77.2639 7.27073 76.7544 8.71686 76.7544 10.5458C76.7544 12.3747 77.2639 13.8208 78.2829 14.9054C79.3019 15.99 80.7031 16.5217 82.5076 16.5217ZM82.5076 14.2036C81.5947 14.2036 80.9154 13.8846 80.4271 13.2466C79.9388 12.6299 79.7053 11.7154 79.7053 10.5458C79.7053 9.37612 79.9388 8.46166 80.4271 7.82366C80.9154 7.18566 81.5947 6.86667 82.5076 6.86667C83.4205 6.86667 84.0998 7.18566 84.5881 7.82366C85.0764 8.46166 85.3099 9.37612 85.3099 10.5458C85.3099 11.7154 85.0764 12.6299 84.5881 13.2466C84.0998 13.8846 83.4205 14.2036 82.5076 14.2036Z" fill="white"/>
<path d="M144.567 16.4427C141.37 16.4427 139.657 14.4892 139.657 10.8433V10.6657C139.657 7.00937 141.37 5.07674 144.567 5.07674C146.917 5.07674 148.453 6.19453 149.153 8.11672C148.787 6.84223 148.85 5.8289 148.85 4.67977V1.61889H151.19V16.2442H148.808C148.819 15.5965 148.787 14.5832 149.132 13.4341C148.411 15.3667 146.886 16.4427 144.567 16.4427ZM145.35 14.9488C147.617 14.9488 148.85 13.5176 148.85 10.8746V10.6135C148.85 7.98091 147.617 6.53927 145.35 6.53927C143.178 6.53927 142.028 7.90779 142.028 10.5821V10.906C142.028 13.5803 143.178 14.9488 145.35 14.9488Z" fill="white"/>
<path d="M135.963 5.27523H138.304V16.2442H135.922C135.922 15.4294 135.859 14.5414 136.266 13.2356C135.368 15.3981 133.822 16.4427 131.492 16.4427C128.964 16.4427 127.606 15.1996 127.606 12.8804V5.27523H129.936V12.3685C129.936 13.9564 130.761 14.813 132.401 14.813C134.616 14.813 135.963 13.0893 135.963 10.3836V5.27523Z" fill="white"/>
<path d="M120.517 16.4845C116.934 16.4845 114.72 14.6041 114.72 10.8955V10.6239C114.72 6.9258 116.934 5.03495 120.517 5.03495C124.09 5.03495 126.305 6.9258 126.305 10.6239V10.8955C126.305 14.6041 124.09 16.4845 120.517 16.4845ZM120.517 14.9593C122.628 14.9593 123.902 13.7161 123.902 11V10.5195C123.902 7.79287 122.628 6.54972 120.517 6.54972C118.397 6.54972 117.122 7.79287 117.122 10.5195V11C117.122 13.7161 118.397 14.9593 120.517 14.9593Z" fill="white"/>
<path d="M113.366 16.2442H111.036V1.61889H113.366V16.2442Z" fill="white"/>
<path d="M104.104 16.4845C100.312 16.4845 98.3066 14.4996 98.3066 10.7597V10.6553C98.3066 6.98848 100.333 5.03495 104.094 5.03495C107.489 5.03495 109.37 6.56017 109.631 9.40166L107.301 9.73596C107.144 7.61528 106.079 6.54972 104.084 6.54972C101.869 6.54972 100.709 7.89734 100.709 10.5299V10.8851C100.709 13.5803 101.879 14.9593 104.115 14.9593C106.089 14.9593 107.207 13.9669 107.364 12.0865L109.735 12.4312C109.401 15.0638 107.447 16.4845 104.104 16.4845Z" fill="white"/>
<path d="M93.4573 16.2451H91.4968L96.1645 0.841837H98.1249L93.4573 16.2451Z" fill="white"/>
</svg>
