<svg width="24" height="24" viewBox="0 0 24 24" fill="none" xmlns="http://www.w3.org/2000/svg">
<g clip-path="url(#clip0_7950_84729)">
<path d="M1.88602 3.41197C1.63939 3.40717 1.39428 3.45174 1.16513 3.54306C0.935976 3.63438 0.7274 3.77061 0.551672 3.94373C0.375944 4.11685 0.236612 4.32336 0.141874 4.55112C0.0471363 4.77889 -0.00109463 5.02329 1.88488e-05 5.26997V20.589H3.92202V14.495H8.85602V10.66H3.92202V7.33597H18.517C18.9297 7.37651 19.3125 7.56911 19.591 7.87631C19.8695 8.18351 20.0238 8.58333 20.0238 8.99797C20.0238 9.41262 19.8695 9.81244 19.591 10.1196C19.3125 10.4268 18.9297 10.6194 18.517 10.66H11.673C11.3346 10.6907 11.0181 10.8409 10.7803 11.0837C10.5425 11.3265 10.3988 11.646 10.375 11.985V20.586H14.294V14.54H16.462L19.6 20.587H23.978L20.518 13.93C21.7053 13.4704 22.6939 12.6092 23.3118 11.496C23.9297 10.3829 24.1378 9.08837 23.8998 7.83768C23.6619 6.58699 22.9929 5.45932 22.0094 4.65087C21.0259 3.84243 19.7901 3.40439 18.517 3.41297L1.88602 3.41197Z" fill="white"/>
</g>
<defs>
<clipPath id="clip0_7950_84729">
<rect width="24" height="24" fill="white"/>
</clipPath>
</defs>
</svg>
