<svg width="24" height="24" viewBox="0 0 24 24" fill="none" xmlns="http://www.w3.org/2000/svg">
<path d="M9.77783 12C9.77783 12.5894 10.012 13.1546 10.4287 13.5714C10.8454 13.9881 11.4107 14.2223 12 14.2223C12.5894 14.2223 13.1546 13.9881 13.5714 13.5714C13.9881 13.1546 14.2223 12.5894 14.2223 12C14.2223 11.4107 13.9881 10.8454 13.5714 10.4287C13.1546 10.012 12.5894 9.77783 12 9.77783C11.4107 9.77783 10.8454 10.012 10.4287 10.4287C10.012 10.8454 9.77783 11.4107 9.77783 12Z" stroke="#1D144D" stroke-linecap="round" stroke-linejoin="round"/>
<path d="M15.3333 15.3333H15.8889C19.2644 15.3333 22 13.841 22 11.9999C22 10.1588 19.2644 8.66663 15.8889 8.66663C13.8489 8.66663 12.0422 9.21107 10.9333 10.05" stroke="#1D144D" stroke-linecap="round" stroke-linejoin="round"/>
<path d="M8.66664 8.66663H8.11109C4.73554 8.66663 2 10.1588 2 11.9999C2 13.841 4.73554 15.3333 8.11109 15.3333C10.16 15.3333 11.9733 14.7833 13.0822 13.9388" stroke="#1D144D" stroke-linecap="round" stroke-linejoin="round"/>
<path d="M15.3333 8.66664V8.11109C15.3333 4.73554 13.841 2 11.9999 2C10.1588 2 8.66663 4.73554 8.66663 8.11109C8.66663 10.1477 9.21107 11.9522 10.0455 13.0622" stroke="#1D144D" stroke-linecap="round" stroke-linejoin="round"/>
<path d="M8.66663 15.3333V15.8889C8.66663 19.2644 10.1588 22 11.9999 22C13.841 22 15.3333 19.2644 15.3333 15.8889C15.3333 13.8422 14.7844 12.0311 13.9422 10.9222" stroke="#1D144D" stroke-linecap="round" stroke-linejoin="round"/>
</svg>
