<svg xmlns="http://www.w3.org/2000/svg" width="720" height="400" viewBox="0 0 720 400" preserveAspectRatio="xMidYMid meet" font-family="Arial, Helvetica, sans-serif">
<path d="M 200.00 70.00 A 130 130 0 0 1 329.05 184.33 L 287.36 189.39 A 88 88 0 0 0 200.00 112.00 Z" fill="#3b82f6" />
<path d="M 329.05 184.33 A 130 130 0 0 1 286.21 297.31 L 258.35 265.87 A 88 88 0 0 0 287.36 189.39 Z" fill="#ef4444" />
<path d="M 286.21 297.31 A 130 130 0 0 1 231.11 326.22 L 221.06 285.44 A 88 88 0 0 0 258.35 265.87 Z" fill="#0ea5e9" />
<path d="M 231.11 326.22 A 130 130 0 0 1 168.89 326.22 L 178.94 285.44 A 88 88 0 0 0 221.06 285.44 Z" fill="#a855f7" />
<path d="M 168.89 326.22 A 130 130 0 0 1 78.45 246.10 L 117.72 231.21 A 88 88 0 0 0 178.94 285.44 Z" fill="#f59e0b" />
<path d="M 78.45 246.10 A 130 130 0 0 1 93.01 126.15 L 127.58 150.01 A 88 88 0 0 0 117.72 231.21 Z" fill="#10b981" />
<path d="M 93.01 126.15 A 130 130 0 0 1 200.00 70.00 L 200.00 112.00 A 88 88 0 0 0 127.58 150.01 Z" fill="#64748b" />
<text x="200" y="196" text-anchor="middle" font-size="56" font-weight="700">13</text>
<text x="200" y="224" text-anchor="middle" font-size="14" fill="#666">cases</text>
<rect x="420" y="64" width="16" height="16" rx="3" fill="#3b82f6"/>
<text x="446" y="77" font-size="14">Hallucination & Supply Chain <tspan fill="#666">(3)</tspan></text>
<rect x="420" y="94" width="16" height="16" rx="3" fill="#ef4444"/>
<text x="446" y="107" font-size="14">Code-Level Vulnerabilities <tspan fill="#666">(2)</tspan></text>
<rect x="420" y="124" width="16" height="16" rx="3" fill="#0ea5e9"/>
<text x="446" y="137" font-size="14">Cloud & IaC Misconfiguration <tspan fill="#666">(1)</tspan></text>
<rect x="420" y="154" width="16" height="16" rx="3" fill="#a855f7"/>
<text x="446" y="167" font-size="14">Agent Risks <tspan fill="#666">(1)</tspan></text>
<rect x="420" y="184" width="16" height="16" rx="3" fill="#f59e0b"/>
<text x="446" y="197" font-size="14">Domain-Specific Risks <tspan fill="#666">(2)</tspan></text>
<rect x="420" y="214" width="16" height="16" rx="3" fill="#10b981"/>
<text x="446" y="227" font-size="14">IP, License & Compliance <tspan fill="#666">(2)</tspan></text>
<rect x="420" y="244" width="16" height="16" rx="3" fill="#64748b"/>
<text x="446" y="257" font-size="14">Human Factors <tspan fill="#666">(2)</tspan></text>
</svg>