<svg xmlns="http://www.w3.org/2000/svg" width="720" height="400" viewBox="0 0 720 400" preserveAspectRatio="xMidYMid meet" font-family="Arial, Helvetica, sans-serif">
<path d="M 200.00 70.00 A 130 130 0 0 1 330.00 200.00 L 288.00 200.00 A 88 88 0 0 0 200.00 112.00 Z" fill="#3b82f6" />
<path d="M 330.00 200.00 A 130 130 0 0 1 265.00 312.58 L 244.00 276.21 A 88 88 0 0 0 288.00 200.00 Z" fill="#ef4444" />
<path d="M 265.00 312.58 A 130 130 0 0 1 200.00 330.00 L 200.00 288.00 A 88 88 0 0 0 244.00 276.21 Z" fill="#a855f7" />
<path d="M 200.00 330.00 A 130 130 0 0 1 87.42 265.00 L 123.79 244.00 A 88 88 0 0 0 200.00 288.00 Z" fill="#f59e0b" />
<path d="M 87.42 265.00 A 130 130 0 0 1 87.42 135.00 L 123.79 156.00 A 88 88 0 0 0 123.79 244.00 Z" fill="#10b981" />
<path d="M 87.42 135.00 A 130 130 0 0 1 200.00 70.00 L 200.00 112.00 A 88 88 0 0 0 123.79 156.00 Z" fill="#64748b" />
<text x="200" y="196" text-anchor="middle" font-size="56" font-weight="700">12</text>
<text x="200" y="224" text-anchor="middle" font-size="14" fill="#666">cases</text>
<rect x="420" y="64" width="16" height="16" rx="3" fill="#3b82f6"/>
<text x="446" y="77" font-size="14">Hallucination & Supply Chain <tspan fill="#666">(3)</tspan></text>
<rect x="420" y="94" width="16" height="16" rx="3" fill="#ef4444"/>
<text x="446" y="107" font-size="14">Code-Level Vulnerabilities <tspan fill="#666">(2)</tspan></text>
<rect x="420" y="124" width="16" height="16" rx="3" fill="#a855f7"/>
<text x="446" y="137" font-size="14">Agent Risks <tspan fill="#666">(1)</tspan></text>
<rect x="420" y="154" width="16" height="16" rx="3" fill="#f59e0b"/>
<text x="446" y="167" font-size="14">Domain-Specific Risks <tspan fill="#666">(2)</tspan></text>
<rect x="420" y="184" width="16" height="16" rx="3" fill="#10b981"/>
<text x="446" y="197" font-size="14">IP, License & Compliance <tspan fill="#666">(2)</tspan></text>
<rect x="420" y="214" width="16" height="16" rx="3" fill="#64748b"/>
<text x="446" y="227" font-size="14">Human Factors <tspan fill="#666">(2)</tspan></text>
</svg>