<svg width="21" height="20" viewBox="0 0 21 20" fill="none" xmlns="http://www.w3.org/2000/svg">
<path d="M1 2C1 1.0335 1.7835 0.25 2.75 0.25H18.75C19.7165 0.25 20.5 1.0335 20.5 2V18C20.5 18.9665 19.7165 19.75 18.75 19.75H2.75C1.7835 19.75 1 18.9665 1 18V2Z" stroke="white" stroke-opacity="0.2" stroke-width="0.5"/>
<g clip-path="url(#clip0_1487_1371)">
<path d="M6.74813 11.8189C6.74813 12.6236 6.09773 13.274 5.29301 13.274C4.48828 13.274 3.83789 12.6236 3.83789 11.8189C3.83789 11.0142 4.48828 10.3638 5.29301 10.3638H6.74813V11.8189ZM7.47569 11.8189C7.47569 11.0142 8.12608 10.3638 8.9308 10.3638C9.73553 10.3638 10.3859 11.0142 10.3859 11.8189V15.4567C10.3859 16.2614 9.73553 16.9118 8.9308 16.9118C8.12608 16.9118 7.47569 16.2614 7.47569 15.4567V11.8189Z" fill="#E01E5A"/>
<path d="M8.93109 5.97637C8.12636 5.97637 7.47597 5.32597 7.47597 4.52125C7.47597 3.71653 8.12636 3.06613 8.93109 3.06613C9.73581 3.06613 10.3862 3.71653 10.3862 4.52125V5.97637H8.93109ZM8.93109 6.71495C9.73581 6.71495 10.3862 7.36535 10.3862 8.17007C10.3862 8.97479 9.73581 9.62519 8.93109 9.62519H5.28227C4.47754 9.62519 3.82715 8.97479 3.82715 8.17007C3.82715 7.36535 4.47754 6.71495 5.28227 6.71495H8.93109Z" fill="#36C5F0"/>
<path d="M14.7628 8.17007C14.7628 7.36535 15.4132 6.71495 16.2179 6.71495C17.0226 6.71495 17.673 7.36535 17.673 8.17007C17.673 8.97479 17.0226 9.62519 16.2179 9.62519H14.7628V8.17007ZM14.0352 8.17007C14.0352 8.97479 13.3848 9.62519 12.5801 9.62519C11.7754 9.62519 11.125 8.97479 11.125 8.17007V4.52125C11.125 3.71653 11.7754 3.06613 12.5801 3.06613C13.3848 3.06613 14.0352 3.71653 14.0352 4.52125V8.17007Z" fill="#2EB67D"/>
<path d="M12.5801 14.0016C13.3848 14.0016 14.0352 14.652 14.0352 15.4567C14.0352 16.2614 13.3848 16.9118 12.5801 16.9118C11.7754 16.9118 11.125 16.2614 11.125 15.4567V14.0016H12.5801ZM12.5801 13.274C11.7754 13.274 11.125 12.6236 11.125 11.8189C11.125 11.0142 11.7754 10.3638 12.5801 10.3638H16.2289C17.0337 10.3638 17.6841 11.0142 17.6841 11.8189C17.6841 12.6236 17.0337 13.274 16.2289 13.274H12.5801Z" fill="#ECB22E"/>
</g>
<defs>
<clipPath id="clip0_1487_1371">
<rect width="14" height="14" fill="white" transform="translate(3.75 3)"/>
</clipPath>
</defs>
</svg>
