<svg width="20" height="20" viewBox="0 0 20 20" fill="none" xmlns="http://www.w3.org/2000/svg">
<path d="M0.25 2C0.25 1.0335 1.0335 0.25 2 0.25H18C18.9665 0.25 19.75 1.0335 19.75 2V18C19.75 18.9665 18.9665 19.75 18 19.75H2C1.0335 19.75 0.25 18.9665 0.25 18V2Z" stroke="white" stroke-opacity="0.2" stroke-width="0.5"/>
<g clip-path="url(#clip0_1487_1635)">
<path d="M6.97902 8.8671C6.97902 9.0375 6.99744 9.17565 7.02968 9.27697C7.06652 9.37828 7.11257 9.48881 7.17705 9.60855C7.20007 9.64539 7.20928 9.68223 7.20928 9.71447C7.20928 9.76052 7.18165 9.80657 7.12178 9.85263L6.83165 10.046C6.7902 10.0737 6.74876 10.0875 6.71191 10.0875C6.66586 10.0875 6.61981 10.0645 6.57376 10.023C6.50928 9.95394 6.45402 9.88026 6.40797 9.80657C6.36191 9.72828 6.31586 9.64078 6.2652 9.53486C5.90599 9.95855 5.45468 10.1704 4.91126 10.1704C4.52441 10.1704 4.21586 10.0599 3.9902 9.83881C3.76455 9.61776 3.64941 9.32302 3.64941 8.9546C3.64941 8.56315 3.78757 8.24539 4.06849 8.00592C4.34941 7.76644 4.72244 7.64671 5.19678 7.64671C5.35336 7.64671 5.51455 7.66052 5.68494 7.68355C5.85533 7.70657 6.03034 7.74342 6.21455 7.78486V7.44868C6.21455 7.09868 6.14086 6.8546 5.9981 6.71184C5.85073 6.56907 5.60205 6.49999 5.24744 6.49999C5.08626 6.49999 4.92047 6.51842 4.75007 6.55986C4.57968 6.60131 4.41389 6.65197 4.2527 6.71644C4.17902 6.74868 4.12376 6.7671 4.09152 6.77631C4.05928 6.78552 4.03626 6.79013 4.01784 6.79013C3.95336 6.79013 3.92112 6.74407 3.92112 6.64736V6.42171C3.92112 6.34802 3.93034 6.29276 3.95336 6.26052C3.97639 6.22828 4.01784 6.19605 4.08231 6.16381C4.24349 6.08092 4.43691 6.01184 4.66257 5.95657C4.88823 5.89671 5.1277 5.86907 5.38099 5.86907C5.92902 5.86907 6.32968 5.99342 6.58757 6.2421C6.84086 6.49078 6.96981 6.86842 6.96981 7.37499V8.8671H6.97902ZM5.10928 9.5671C5.26126 9.5671 5.41784 9.53947 5.58362 9.48421C5.74941 9.42894 5.89678 9.32763 6.02112 9.18947C6.09481 9.10197 6.15007 9.00526 6.1777 8.89473C6.20534 8.78421 6.22376 8.65065 6.22376 8.49407V8.30065C6.0902 8.26842 5.94744 8.24078 5.80007 8.22236C5.6527 8.20394 5.50994 8.19473 5.36718 8.19473C5.05862 8.19473 4.83297 8.2546 4.68099 8.37894C4.52902 8.50328 4.45534 8.67828 4.45534 8.90855C4.45534 9.125 4.5106 9.28618 4.62573 9.39671C4.73626 9.51184 4.89744 9.5671 5.10928 9.5671ZM8.80731 10.0645C8.72441 10.0645 8.66915 10.0507 8.63231 10.0184C8.59547 9.99078 8.56323 9.92631 8.5356 9.83881L7.45336 6.27894C7.42573 6.18684 7.41191 6.12697 7.41191 6.09473C7.41191 6.02105 7.44876 5.9796 7.52244 5.9796H7.97376C8.06126 5.9796 8.12112 5.99342 8.15336 6.02565C8.1902 6.05328 8.21784 6.11776 8.24547 6.20526L9.01915 9.25394L9.73757 6.20526C9.7606 6.11315 9.78823 6.05328 9.82507 6.02565C9.86191 5.99802 9.92639 5.9796 10.0093 5.9796H10.3777C10.4652 5.9796 10.5251 5.99342 10.5619 6.02565C10.5988 6.05328 10.631 6.11776 10.6494 6.20526L11.377 9.29078L12.1738 6.20526C12.2014 6.11315 12.2336 6.05328 12.2659 6.02565C12.3027 5.99802 12.3626 5.9796 12.4455 5.9796H12.8738C12.9474 5.9796 12.9889 6.01644 12.9889 6.09473C12.9889 6.11776 12.9843 6.14078 12.9797 6.16842C12.9751 6.19605 12.9659 6.23289 12.9474 6.28355L11.8376 9.84342C11.8099 9.93552 11.7777 9.99539 11.7409 10.023C11.704 10.0507 11.6442 10.0691 11.5659 10.0691H11.1698C11.0823 10.0691 11.0224 10.0553 10.9856 10.023C10.9488 9.99078 10.9165 9.93092 10.8981 9.83881L10.1843 6.86842L9.47507 9.83421C9.45205 9.92631 9.42441 9.98618 9.38757 10.0184C9.35073 10.0507 9.28626 10.0645 9.20336 10.0645H8.80731ZM14.7251 10.1888C14.4856 10.1888 14.2461 10.1612 14.0159 10.1059C13.7856 10.0507 13.606 9.99078 13.4863 9.92171C13.4126 9.88026 13.3619 9.83421 13.3435 9.79276C13.3251 9.75131 13.3159 9.70526 13.3159 9.66381V9.42894C13.3159 9.33223 13.3527 9.28618 13.4218 9.28618C13.4494 9.28618 13.477 9.29078 13.5047 9.3C13.5323 9.30921 13.5738 9.32763 13.6198 9.34605C13.7764 9.41513 13.9468 9.47039 14.1264 9.50723C14.3106 9.54407 14.4902 9.5625 14.6744 9.5625C14.9645 9.5625 15.1902 9.51184 15.3468 9.41052C15.5034 9.30921 15.5863 9.16184 15.5863 8.97302C15.5863 8.84407 15.5448 8.73815 15.4619 8.65065C15.379 8.56315 15.2224 8.48486 14.9968 8.41118L14.329 8.20394C13.9928 8.09802 13.7442 7.94144 13.5922 7.73421C13.4402 7.53157 13.3619 7.30592 13.3619 7.06644C13.3619 6.87302 13.4034 6.70263 13.4863 6.55526C13.5691 6.40789 13.6797 6.27894 13.8178 6.17763C13.956 6.07171 14.1126 5.99342 14.2968 5.93815C14.481 5.88289 14.6744 5.85986 14.877 5.85986C14.9784 5.85986 15.0843 5.86447 15.1856 5.87828C15.2915 5.8921 15.3882 5.91052 15.4849 5.92894C15.577 5.95197 15.6645 5.97499 15.7474 6.00263C15.8303 6.03026 15.8948 6.05789 15.9409 6.08552C16.0053 6.12236 16.0514 6.15921 16.079 6.20065C16.1067 6.23749 16.1205 6.28815 16.1205 6.35263V6.56907C16.1205 6.66578 16.0836 6.71644 16.0145 6.71644C15.9777 6.71644 15.9178 6.69802 15.8395 6.66118C15.577 6.54144 15.2823 6.48157 14.9553 6.48157C14.6928 6.48157 14.4856 6.52302 14.3428 6.61052C14.2001 6.69802 14.1264 6.83157 14.1264 7.02039C14.1264 7.14934 14.1724 7.25986 14.2645 7.34736C14.3567 7.43486 14.527 7.52236 14.7711 7.60065L15.4251 7.80789C15.7566 7.91381 15.9961 8.06118 16.1389 8.24999C16.2816 8.43881 16.3507 8.65526 16.3507 8.89473C16.3507 9.09276 16.3093 9.27236 16.231 9.42894C16.1481 9.58552 16.0376 9.72368 15.8948 9.83421C15.752 9.94934 15.5816 10.0322 15.3836 10.0921C15.1764 10.1566 14.9599 10.1888 14.7251 10.1888Z" fill="white"/>
<path fill-rule="evenodd" clip-rule="evenodd" d="M15.5957 12.427C14.0806 13.546 11.8793 14.1401 9.98652 14.1401C7.33389 14.1401 4.94375 13.1592 3.13849 11.5289C2.99573 11.4 3.12468 11.225 3.29507 11.3263C5.2477 12.4592 7.65625 13.1454 10.1477 13.1454C11.8286 13.1454 13.6753 12.7954 15.3747 12.077C15.628 11.9618 15.8444 12.2428 15.5957 12.427Z" fill="#FF9900"/>
<path fill-rule="evenodd" clip-rule="evenodd" d="M16.2271 11.7085C16.0337 11.4599 14.9468 11.5888 14.4541 11.6487C14.3067 11.6671 14.2837 11.5381 14.4172 11.4414C15.283 10.8335 16.706 11.0085 16.8718 11.2112C17.0376 11.4184 16.8258 12.8414 16.0152 13.523C15.8909 13.6289 15.7712 13.5737 15.8264 13.4355C16.0106 12.9796 16.4205 11.9526 16.2271 11.7085Z" fill="#FF9900"/>
</g>
<defs>
<clipPath id="clip0_1487_1635">
<rect width="14" height="8.38158" fill="white" transform="translate(3 5.8092)"/>
</clipPath>
</defs>
</svg>
