<svg width="1352" height="177" viewBox="0 0 1352 177" fill="none" xmlns="http://www.w3.org/2000/svg">
<mask id="mask0_3310_240300" style="mask-type:alpha" maskUnits="userSpaceOnUse" x="0" y="0" width="1352" height="177">
<rect x="0.958008" y="0.0429688" width="1350.1" height="175.996" fill="url(#paint0_linear_3310_240300)"/>
</mask>
<g mask="url(#mask0_3310_240300)">
<mask id="path-2-outside-1_3310_240300" maskUnits="userSpaceOnUse" x="-0.0517578" y="18.6104" width="1353" height="150" fill="black">
<rect fill="white" x="-0.0517578" y="18.6104" width="1353" height="150"/>
<path d="M54.9372 137.347C19.5217 137.347 0.948242 109.959 0.948242 78.3214C0.948242 45.5817 20.9383 19.6104 56.3538 19.6104C86.2602 19.6104 102.473 38.3412 106.25 59.4331H87.0472C83.7418 47.7853 75.7143 35.6654 55.8816 35.6654C34.3175 35.6654 19.8365 50.3038 19.8365 78.3214C19.8365 106.969 35.2619 121.292 56.039 121.292C70.9922 121.292 86.8898 113.737 88.149 92.3301V91.3857H54.465V75.3307H107.195V135.458H90.5101L90.0379 121.607C83.5844 130.421 72.5662 137.347 54.9372 137.347Z"/>
<path d="M164.704 48.8872C191.62 48.8872 207.045 68.2476 205.471 97.8392H140.464C142.038 113.579 151.01 123.024 164.862 123.024C176.982 123.024 184.694 116.098 187.055 107.126H204.999C201.064 126.644 185.639 137.347 164.862 137.347C138.261 137.347 122.363 119.561 122.363 93.1172C122.363 66.6736 138.89 48.8872 164.704 48.8872ZM187.37 85.4044C186.583 73.7567 179.5 63.0534 164.389 63.0534C151.168 63.0534 142.983 71.2383 140.937 85.4044H187.37Z"/>
<path d="M263.989 121.135V135.458H251.555C235.027 135.458 227.157 130.894 227.157 113.107V64.1552H212.991V50.776H227.157V30.3137H244.786V50.776H262.888V64.1552H244.786V110.117C244.786 118.144 246.99 121.135 254.86 121.135H263.989Z"/>
<path d="M357.125 137.347C323.441 137.347 309.117 119.246 307.386 99.4132H326.116C329.422 114.996 340.755 121.607 357.282 121.607C376.328 121.607 382.466 112.478 382.466 103.821C382.466 91.3857 370.504 88.8673 356.18 85.7193C336.82 81.312 310.848 75.6455 310.848 51.0908C310.848 31.8877 327.061 19.6104 352.875 19.6104C376.643 19.6104 393.799 29.9989 397.262 51.563H378.217C375.541 40.8596 366.569 35.3506 352.717 35.3506C337.292 35.3506 329.579 41.9615 329.579 50.4612C329.579 62.1089 344.218 65.5718 363.736 69.8216C377.902 72.8123 401.355 78.0066 401.355 102.561C401.355 114.209 395.531 137.347 357.125 137.347Z"/>
<path d="M454.914 48.8872C481.83 48.8872 497.256 68.2476 495.682 97.8392H430.675C432.249 113.579 441.22 123.024 455.072 123.024C467.192 123.024 474.905 116.098 477.266 107.126H495.209C491.274 126.644 475.849 137.347 455.072 137.347C428.471 137.347 412.573 119.561 412.573 93.1172C412.573 66.6736 429.101 48.8872 454.914 48.8872ZM477.58 85.4044C476.793 73.7567 469.71 63.0534 454.6 63.0534C441.378 63.0534 433.193 71.2383 431.147 85.4044H477.58Z"/>
<path d="M548.661 137.347C522.847 137.347 507.107 119.561 507.107 93.1172C507.107 66.6736 522.847 48.8872 548.661 48.8872C569.123 48.8872 583.289 59.9053 587.067 79.1084H569.123C566.762 70.1364 560.623 63.2108 548.346 63.2108C533.078 63.2108 525.051 74.3863 525.051 93.1172C525.051 111.848 533.078 123.024 548.346 123.024C560.938 123.024 566.762 116.098 569.123 107.126H587.067C583.289 126.329 569.123 137.347 548.661 137.347Z"/>
<path d="M674.947 50.776V135.458H657.318V122.551C651.021 133.884 640.948 137.347 630.244 137.347C609.94 137.347 601.125 124.755 601.125 105.709V50.776H618.754V101.459C618.754 113.737 622.06 123.024 635.754 123.024C651.494 123.024 657.318 110.746 657.318 95.3208V50.776H674.947Z"/>
<path d="M735.046 49.8316C736.935 49.8316 738.666 49.989 740.24 50.3038V67.9328C738.351 67.618 736.305 67.4606 734.259 67.4606C712.223 67.4606 712.065 87.2933 712.065 99.4132V135.458H694.436V50.776H711.75V64.9422C716.473 55.1832 724.028 49.8316 735.046 49.8316Z"/>
<path d="M752.079 21.4992H772.698V39.9152H752.079V21.4992ZM753.653 50.776H771.282V135.458H753.653V50.776Z"/>
<path d="M835.956 121.135V135.458H823.521C806.994 135.458 799.123 130.894 799.123 113.107V64.1552H784.957V50.776H799.123V30.3137H816.752V50.776H834.854V64.1552H816.752V110.117C816.752 118.144 818.956 121.135 826.826 121.135H835.956Z"/>
<path d="M849.807 152.615H856.575C865.232 152.615 869.64 151.828 872.315 144.588L875.778 135.458L843.511 50.776H862.084L884.121 113.579L906.157 50.776H924.73L887.898 147.421C883.648 158.596 877.667 166.939 860.51 166.939H849.807V152.615Z"/>
<path d="M1011.86 21.4992C1030.91 21.4992 1072.15 25.5916 1072.15 78.4788C1072.15 131.366 1030.91 135.458 1011.86 135.458H974.557V21.4992H1011.86ZM1011.55 119.089C1028.23 118.931 1053.26 115.626 1053.26 78.4788C1053.26 41.3318 1028.23 37.869 1011.55 37.869H992.815V119.089H1011.55Z"/>
<path d="M1125.85 137.347C1100.19 137.347 1084.61 120.033 1084.61 93.1172C1084.61 66.044 1100.19 48.8872 1125.85 48.8872C1151.5 48.8872 1167.09 66.044 1167.09 93.1172C1167.09 120.033 1151.5 137.347 1125.85 137.347ZM1125.85 123.024C1140.64 123.024 1149.14 112.005 1149.14 93.1172C1149.14 74.0715 1140.64 63.2108 1125.85 63.2108C1111.05 63.2108 1102.55 74.0715 1102.55 93.1172C1102.55 112.005 1111.05 123.024 1125.85 123.024Z"/>
<path d="M1225.95 48.8872C1246.1 48.8872 1254.91 61.3219 1254.91 80.3676V135.458H1237.28V84.7748C1237.28 72.4975 1233.98 63.2108 1220.28 63.2108C1204.54 63.2108 1198.72 75.4881 1198.72 90.7561V135.458H1181.09V50.776H1198.72V63.683C1205.02 52.35 1215.25 48.8872 1225.95 48.8872Z"/>
<path d="M1310.17 48.8872C1337.09 48.8872 1352.51 68.2476 1350.94 97.8392H1285.93C1287.51 113.579 1296.48 123.024 1310.33 123.024C1322.45 123.024 1330.16 116.098 1332.52 107.126H1350.47C1346.53 126.644 1331.11 137.347 1310.33 137.347C1283.73 137.347 1267.83 119.561 1267.83 93.1172C1267.83 66.6736 1284.36 48.8872 1310.17 48.8872ZM1332.84 85.4044C1332.05 73.7567 1324.97 63.0534 1309.86 63.0534C1296.64 63.0534 1288.45 71.2383 1286.41 85.4044H1332.84Z"/>
</mask>
<g filter="url(#filter0_i_3310_240300)">
<path d="M54.9372 137.347C19.5217 137.347 0.948242 109.959 0.948242 78.3214C0.948242 45.5817 20.9383 19.6104 56.3538 19.6104C86.2602 19.6104 102.473 38.3412 106.25 59.4331H87.0472C83.7418 47.7853 75.7143 35.6654 55.8816 35.6654C34.3175 35.6654 19.8365 50.3038 19.8365 78.3214C19.8365 106.969 35.2619 121.292 56.039 121.292C70.9922 121.292 86.8898 113.737 88.149 92.3301V91.3857H54.465V75.3307H107.195V135.458H90.5101L90.0379 121.607C83.5844 130.421 72.5662 137.347 54.9372 137.347Z" fill="#010024"/>
<path d="M164.704 48.8872C191.62 48.8872 207.045 68.2476 205.471 97.8392H140.464C142.038 113.579 151.01 123.024 164.862 123.024C176.982 123.024 184.694 116.098 187.055 107.126H204.999C201.064 126.644 185.639 137.347 164.862 137.347C138.261 137.347 122.363 119.561 122.363 93.1172C122.363 66.6736 138.89 48.8872 164.704 48.8872ZM187.37 85.4044C186.583 73.7567 179.5 63.0534 164.389 63.0534C151.168 63.0534 142.983 71.2383 140.937 85.4044H187.37Z" fill="#010024"/>
<path d="M263.989 121.135V135.458H251.555C235.027 135.458 227.157 130.894 227.157 113.107V64.1552H212.991V50.776H227.157V30.3137H244.786V50.776H262.888V64.1552H244.786V110.117C244.786 118.144 246.99 121.135 254.86 121.135H263.989Z" fill="#010024"/>
<path d="M357.125 137.347C323.441 137.347 309.117 119.246 307.386 99.4132H326.116C329.422 114.996 340.755 121.607 357.282 121.607C376.328 121.607 382.466 112.478 382.466 103.821C382.466 91.3857 370.504 88.8673 356.18 85.7193C336.82 81.312 310.848 75.6455 310.848 51.0908C310.848 31.8877 327.061 19.6104 352.875 19.6104C376.643 19.6104 393.799 29.9989 397.262 51.563H378.217C375.541 40.8596 366.569 35.3506 352.717 35.3506C337.292 35.3506 329.579 41.9615 329.579 50.4612C329.579 62.1089 344.218 65.5718 363.736 69.8216C377.902 72.8123 401.355 78.0066 401.355 102.561C401.355 114.209 395.531 137.347 357.125 137.347Z" fill="#010024"/>
<path d="M454.914 48.8872C481.83 48.8872 497.256 68.2476 495.682 97.8392H430.675C432.249 113.579 441.22 123.024 455.072 123.024C467.192 123.024 474.905 116.098 477.266 107.126H495.209C491.274 126.644 475.849 137.347 455.072 137.347C428.471 137.347 412.573 119.561 412.573 93.1172C412.573 66.6736 429.101 48.8872 454.914 48.8872ZM477.58 85.4044C476.793 73.7567 469.71 63.0534 454.6 63.0534C441.378 63.0534 433.193 71.2383 431.147 85.4044H477.58Z" fill="#010024"/>
<path d="M548.661 137.347C522.847 137.347 507.107 119.561 507.107 93.1172C507.107 66.6736 522.847 48.8872 548.661 48.8872C569.123 48.8872 583.289 59.9053 587.067 79.1084H569.123C566.762 70.1364 560.623 63.2108 548.346 63.2108C533.078 63.2108 525.051 74.3863 525.051 93.1172C525.051 111.848 533.078 123.024 548.346 123.024C560.938 123.024 566.762 116.098 569.123 107.126H587.067C583.289 126.329 569.123 137.347 548.661 137.347Z" fill="#010024"/>
<path d="M674.947 50.776V135.458H657.318V122.551C651.021 133.884 640.948 137.347 630.244 137.347C609.94 137.347 601.125 124.755 601.125 105.709V50.776H618.754V101.459C618.754 113.737 622.06 123.024 635.754 123.024C651.494 123.024 657.318 110.746 657.318 95.3208V50.776H674.947Z" fill="#010024"/>
<path d="M735.046 49.8316C736.935 49.8316 738.666 49.989 740.24 50.3038V67.9328C738.351 67.618 736.305 67.4606 734.259 67.4606C712.223 67.4606 712.065 87.2933 712.065 99.4132V135.458H694.436V50.776H711.75V64.9422C716.473 55.1832 724.028 49.8316 735.046 49.8316Z" fill="#010024"/>
<path d="M752.079 21.4992H772.698V39.9152H752.079V21.4992ZM753.653 50.776H771.282V135.458H753.653V50.776Z" fill="#010024"/>
<path d="M835.956 121.135V135.458H823.521C806.994 135.458 799.123 130.894 799.123 113.107V64.1552H784.957V50.776H799.123V30.3137H816.752V50.776H834.854V64.1552H816.752V110.117C816.752 118.144 818.956 121.135 826.826 121.135H835.956Z" fill="#010024"/>
<path d="M849.807 152.615H856.575C865.232 152.615 869.64 151.828 872.315 144.588L875.778 135.458L843.511 50.776H862.084L884.121 113.579L906.157 50.776H924.73L887.898 147.421C883.648 158.596 877.667 166.939 860.51 166.939H849.807V152.615Z" fill="#010024"/>
<path d="M1011.86 21.4992C1030.91 21.4992 1072.15 25.5916 1072.15 78.4788C1072.15 131.366 1030.91 135.458 1011.86 135.458H974.557V21.4992H1011.86ZM1011.55 119.089C1028.23 118.931 1053.26 115.626 1053.26 78.4788C1053.26 41.3318 1028.23 37.869 1011.55 37.869H992.815V119.089H1011.55Z" fill="#010024"/>
<path d="M1125.85 137.347C1100.19 137.347 1084.61 120.033 1084.61 93.1172C1084.61 66.044 1100.19 48.8872 1125.85 48.8872C1151.5 48.8872 1167.09 66.044 1167.09 93.1172C1167.09 120.033 1151.5 137.347 1125.85 137.347ZM1125.85 123.024C1140.64 123.024 1149.14 112.005 1149.14 93.1172C1149.14 74.0715 1140.64 63.2108 1125.85 63.2108C1111.05 63.2108 1102.55 74.0715 1102.55 93.1172C1102.55 112.005 1111.05 123.024 1125.85 123.024Z" fill="#010024"/>
<path d="M1225.95 48.8872C1246.1 48.8872 1254.91 61.3219 1254.91 80.3676V135.458H1237.28V84.7748C1237.28 72.4975 1233.98 63.2108 1220.28 63.2108C1204.54 63.2108 1198.72 75.4881 1198.72 90.7561V135.458H1181.09V50.776H1198.72V63.683C1205.02 52.35 1215.25 48.8872 1225.95 48.8872Z" fill="#010024"/>
<path d="M1310.17 48.8872C1337.09 48.8872 1352.51 68.2476 1350.94 97.8392H1285.93C1287.51 113.579 1296.48 123.024 1310.33 123.024C1322.45 123.024 1330.16 116.098 1332.52 107.126H1350.47C1346.53 126.644 1331.11 137.347 1310.33 137.347C1283.73 137.347 1267.83 119.561 1267.83 93.1172C1267.83 66.6736 1284.36 48.8872 1310.17 48.8872ZM1332.84 85.4044C1332.05 73.7567 1324.97 63.0534 1309.86 63.0534C1296.64 63.0534 1288.45 71.2383 1286.41 85.4044H1332.84Z" fill="#010024"/>
</g>
<path d="M54.9372 137.347C19.5217 137.347 0.948242 109.959 0.948242 78.3214C0.948242 45.5817 20.9383 19.6104 56.3538 19.6104C86.2602 19.6104 102.473 38.3412 106.25 59.4331H87.0472C83.7418 47.7853 75.7143 35.6654 55.8816 35.6654C34.3175 35.6654 19.8365 50.3038 19.8365 78.3214C19.8365 106.969 35.2619 121.292 56.039 121.292C70.9922 121.292 86.8898 113.737 88.149 92.3301V91.3857H54.465V75.3307H107.195V135.458H90.5101L90.0379 121.607C83.5844 130.421 72.5662 137.347 54.9372 137.347Z" stroke="url(#paint1_linear_3310_240300)" stroke-width="1.87939" mask="url(#path-2-outside-1_3310_240300)"/>
<path d="M164.704 48.8872C191.62 48.8872 207.045 68.2476 205.471 97.8392H140.464C142.038 113.579 151.01 123.024 164.862 123.024C176.982 123.024 184.694 116.098 187.055 107.126H204.999C201.064 126.644 185.639 137.347 164.862 137.347C138.261 137.347 122.363 119.561 122.363 93.1172C122.363 66.6736 138.89 48.8872 164.704 48.8872ZM187.37 85.4044C186.583 73.7567 179.5 63.0534 164.389 63.0534C151.168 63.0534 142.983 71.2383 140.937 85.4044H187.37Z" stroke="url(#paint2_linear_3310_240300)" stroke-width="1.87939" mask="url(#path-2-outside-1_3310_240300)"/>
<path d="M263.989 121.135V135.458H251.555C235.027 135.458 227.157 130.894 227.157 113.107V64.1552H212.991V50.776H227.157V30.3137H244.786V50.776H262.888V64.1552H244.786V110.117C244.786 118.144 246.99 121.135 254.86 121.135H263.989Z" stroke="url(#paint3_linear_3310_240300)" stroke-width="1.87939" mask="url(#path-2-outside-1_3310_240300)"/>
<path d="M357.125 137.347C323.441 137.347 309.117 119.246 307.386 99.4132H326.116C329.422 114.996 340.755 121.607 357.282 121.607C376.328 121.607 382.466 112.478 382.466 103.821C382.466 91.3857 370.504 88.8673 356.18 85.7193C336.82 81.312 310.848 75.6455 310.848 51.0908C310.848 31.8877 327.061 19.6104 352.875 19.6104C376.643 19.6104 393.799 29.9989 397.262 51.563H378.217C375.541 40.8596 366.569 35.3506 352.717 35.3506C337.292 35.3506 329.579 41.9615 329.579 50.4612C329.579 62.1089 344.218 65.5718 363.736 69.8216C377.902 72.8123 401.355 78.0066 401.355 102.561C401.355 114.209 395.531 137.347 357.125 137.347Z" stroke="url(#paint4_linear_3310_240300)" stroke-width="1.87939" mask="url(#path-2-outside-1_3310_240300)"/>
<path d="M454.914 48.8872C481.83 48.8872 497.256 68.2476 495.682 97.8392H430.675C432.249 113.579 441.22 123.024 455.072 123.024C467.192 123.024 474.905 116.098 477.266 107.126H495.209C491.274 126.644 475.849 137.347 455.072 137.347C428.471 137.347 412.573 119.561 412.573 93.1172C412.573 66.6736 429.101 48.8872 454.914 48.8872ZM477.58 85.4044C476.793 73.7567 469.71 63.0534 454.6 63.0534C441.378 63.0534 433.193 71.2383 431.147 85.4044H477.58Z" stroke="url(#paint5_linear_3310_240300)" stroke-width="1.87939" mask="url(#path-2-outside-1_3310_240300)"/>
<path d="M548.661 137.347C522.847 137.347 507.107 119.561 507.107 93.1172C507.107 66.6736 522.847 48.8872 548.661 48.8872C569.123 48.8872 583.289 59.9053 587.067 79.1084H569.123C566.762 70.1364 560.623 63.2108 548.346 63.2108C533.078 63.2108 525.051 74.3863 525.051 93.1172C525.051 111.848 533.078 123.024 548.346 123.024C560.938 123.024 566.762 116.098 569.123 107.126H587.067C583.289 126.329 569.123 137.347 548.661 137.347Z" stroke="url(#paint6_linear_3310_240300)" stroke-width="1.87939" mask="url(#path-2-outside-1_3310_240300)"/>
<path d="M674.947 50.776V135.458H657.318V122.551C651.021 133.884 640.948 137.347 630.244 137.347C609.94 137.347 601.125 124.755 601.125 105.709V50.776H618.754V101.459C618.754 113.737 622.06 123.024 635.754 123.024C651.494 123.024 657.318 110.746 657.318 95.3208V50.776H674.947Z" stroke="url(#paint7_linear_3310_240300)" stroke-width="1.87939" mask="url(#path-2-outside-1_3310_240300)"/>
<path d="M735.046 49.8316C736.935 49.8316 738.666 49.989 740.24 50.3038V67.9328C738.351 67.618 736.305 67.4606 734.259 67.4606C712.223 67.4606 712.065 87.2933 712.065 99.4132V135.458H694.436V50.776H711.75V64.9422C716.473 55.1832 724.028 49.8316 735.046 49.8316Z" stroke="url(#paint8_linear_3310_240300)" stroke-width="1.87939" mask="url(#path-2-outside-1_3310_240300)"/>
<path d="M752.079 21.4992H772.698V39.9152H752.079V21.4992ZM753.653 50.776H771.282V135.458H753.653V50.776Z" stroke="url(#paint9_linear_3310_240300)" stroke-width="1.87939" mask="url(#path-2-outside-1_3310_240300)"/>
<path d="M835.956 121.135V135.458H823.521C806.994 135.458 799.123 130.894 799.123 113.107V64.1552H784.957V50.776H799.123V30.3137H816.752V50.776H834.854V64.1552H816.752V110.117C816.752 118.144 818.956 121.135 826.826 121.135H835.956Z" stroke="url(#paint10_linear_3310_240300)" stroke-width="1.87939" mask="url(#path-2-outside-1_3310_240300)"/>
<path d="M849.807 152.615H856.575C865.232 152.615 869.64 151.828 872.315 144.588L875.778 135.458L843.511 50.776H862.084L884.121 113.579L906.157 50.776H924.73L887.898 147.421C883.648 158.596 877.667 166.939 860.51 166.939H849.807V152.615Z" stroke="url(#paint11_linear_3310_240300)" stroke-width="1.87939" mask="url(#path-2-outside-1_3310_240300)"/>
<path d="M1011.86 21.4992C1030.91 21.4992 1072.15 25.5916 1072.15 78.4788C1072.15 131.366 1030.91 135.458 1011.86 135.458H974.557V21.4992H1011.86ZM1011.55 119.089C1028.23 118.931 1053.26 115.626 1053.26 78.4788C1053.26 41.3318 1028.23 37.869 1011.55 37.869H992.815V119.089H1011.55Z" stroke="url(#paint12_linear_3310_240300)" stroke-width="1.87939" mask="url(#path-2-outside-1_3310_240300)"/>
<path d="M1125.85 137.347C1100.19 137.347 1084.61 120.033 1084.61 93.1172C1084.61 66.044 1100.19 48.8872 1125.85 48.8872C1151.5 48.8872 1167.09 66.044 1167.09 93.1172C1167.09 120.033 1151.5 137.347 1125.85 137.347ZM1125.85 123.024C1140.64 123.024 1149.14 112.005 1149.14 93.1172C1149.14 74.0715 1140.64 63.2108 1125.85 63.2108C1111.05 63.2108 1102.55 74.0715 1102.55 93.1172C1102.55 112.005 1111.05 123.024 1125.85 123.024Z" stroke="url(#paint13_linear_3310_240300)" stroke-width="1.87939" mask="url(#path-2-outside-1_3310_240300)"/>
<path d="M1225.95 48.8872C1246.1 48.8872 1254.91 61.3219 1254.91 80.3676V135.458H1237.28V84.7748C1237.28 72.4975 1233.98 63.2108 1220.28 63.2108C1204.54 63.2108 1198.72 75.4881 1198.72 90.7561V135.458H1181.09V50.776H1198.72V63.683C1205.02 52.35 1215.25 48.8872 1225.95 48.8872Z" stroke="url(#paint14_linear_3310_240300)" stroke-width="1.87939" mask="url(#path-2-outside-1_3310_240300)"/>
<path d="M1310.17 48.8872C1337.09 48.8872 1352.51 68.2476 1350.94 97.8392H1285.93C1287.51 113.579 1296.48 123.024 1310.33 123.024C1322.45 123.024 1330.16 116.098 1332.52 107.126H1350.47C1346.53 126.644 1331.11 137.347 1310.33 137.347C1283.73 137.347 1267.83 119.561 1267.83 93.1172C1267.83 66.6736 1284.36 48.8872 1310.17 48.8872ZM1332.84 85.4044C1332.05 73.7567 1324.97 63.0534 1309.86 63.0534C1296.64 63.0534 1288.45 71.2383 1286.41 85.4044H1332.84Z" stroke="url(#paint15_linear_3310_240300)" stroke-width="1.87939" mask="url(#path-2-outside-1_3310_240300)"/>
</g>
<defs>
<filter id="filter0_i_3310_240300" x="0.00878906" y="18.6709" width="1351.98" height="155.786" filterUnits="userSpaceOnUse" color-interpolation-filters="sRGB">
<feFlood flood-opacity="0" result="BackgroundImageFix"/>
<feBlend mode="normal" in="SourceGraphic" in2="BackgroundImageFix" result="shape"/>
<feColorMatrix in="SourceAlpha" type="matrix" values="0 0 0 0 0 0 0 0 0 0 0 0 0 0 0 0 0 0 127 0" result="hardAlpha"/>
<feOffset dy="6.57785"/>
<feGaussianBlur stdDeviation="9.39693"/>
<feComposite in2="hardAlpha" operator="arithmetic" k2="-1" k3="1"/>
<feColorMatrix type="matrix" values="0 0 0 0 1 0 0 0 0 1 0 0 0 0 1 0 0 0 0.2 0"/>
<feBlend mode="normal" in2="shape" result="effect1_innerShadow_3310_240300"/>
</filter>
<linearGradient id="paint0_linear_3310_240300" x1="676.009" y1="125.506" x2="676.009" y2="47.7486" gradientUnits="userSpaceOnUse">
<stop stop-opacity="0"/>
<stop offset="1"/>
</linearGradient>
<linearGradient id="paint1_linear_3310_240300" x1="676" y1="19.6104" x2="676" y2="111.515" gradientUnits="userSpaceOnUse">
<stop stop-color="white" stop-opacity="0.65"/>
<stop offset="1" stop-color="white" stop-opacity="0"/>
</linearGradient>
<linearGradient id="paint2_linear_3310_240300" x1="676" y1="19.6104" x2="676" y2="111.515" gradientUnits="userSpaceOnUse">
<stop stop-color="white" stop-opacity="0.65"/>
<stop offset="1" stop-color="white" stop-opacity="0"/>
</linearGradient>
<linearGradient id="paint3_linear_3310_240300" x1="676" y1="19.6104" x2="676" y2="111.515" gradientUnits="userSpaceOnUse">
<stop stop-color="white" stop-opacity="0.65"/>
<stop offset="1" stop-color="white" stop-opacity="0"/>
</linearGradient>
<linearGradient id="paint4_linear_3310_240300" x1="676" y1="19.6104" x2="676" y2="111.515" gradientUnits="userSpaceOnUse">
<stop stop-color="white" stop-opacity="0.65"/>
<stop offset="1" stop-color="white" stop-opacity="0"/>
</linearGradient>
<linearGradient id="paint5_linear_3310_240300" x1="676" y1="19.6104" x2="676" y2="111.515" gradientUnits="userSpaceOnUse">
<stop stop-color="white" stop-opacity="0.65"/>
<stop offset="1" stop-color="white" stop-opacity="0"/>
</linearGradient>
<linearGradient id="paint6_linear_3310_240300" x1="676" y1="19.6104" x2="676" y2="111.515" gradientUnits="userSpaceOnUse">
<stop stop-color="white" stop-opacity="0.65"/>
<stop offset="1" stop-color="white" stop-opacity="0"/>
</linearGradient>
<linearGradient id="paint7_linear_3310_240300" x1="676" y1="19.6104" x2="676" y2="111.515" gradientUnits="userSpaceOnUse">
<stop stop-color="white" stop-opacity="0.65"/>
<stop offset="1" stop-color="white" stop-opacity="0"/>
</linearGradient>
<linearGradient id="paint8_linear_3310_240300" x1="676" y1="19.6104" x2="676" y2="111.515" gradientUnits="userSpaceOnUse">
<stop stop-color="white" stop-opacity="0.65"/>
<stop offset="1" stop-color="white" stop-opacity="0"/>
</linearGradient>
<linearGradient id="paint9_linear_3310_240300" x1="676" y1="19.6104" x2="676" y2="111.515" gradientUnits="userSpaceOnUse">
<stop stop-color="white" stop-opacity="0.65"/>
<stop offset="1" stop-color="white" stop-opacity="0"/>
</linearGradient>
<linearGradient id="paint10_linear_3310_240300" x1="676" y1="19.6104" x2="676" y2="111.515" gradientUnits="userSpaceOnUse">
<stop stop-color="white" stop-opacity="0.65"/>
<stop offset="1" stop-color="white" stop-opacity="0"/>
</linearGradient>
<linearGradient id="paint11_linear_3310_240300" x1="676" y1="19.6104" x2="676" y2="111.515" gradientUnits="userSpaceOnUse">
<stop stop-color="white" stop-opacity="0.65"/>
<stop offset="1" stop-color="white" stop-opacity="0"/>
</linearGradient>
<linearGradient id="paint12_linear_3310_240300" x1="676" y1="19.6104" x2="676" y2="111.515" gradientUnits="userSpaceOnUse">
<stop stop-color="white" stop-opacity="0.65"/>
<stop offset="1" stop-color="white" stop-opacity="0"/>
</linearGradient>
<linearGradient id="paint13_linear_3310_240300" x1="676" y1="19.6104" x2="676" y2="111.515" gradientUnits="userSpaceOnUse">
<stop stop-color="white" stop-opacity="0.65"/>
<stop offset="1" stop-color="white" stop-opacity="0"/>
</linearGradient>
<linearGradient id="paint14_linear_3310_240300" x1="676" y1="19.6104" x2="676" y2="111.515" gradientUnits="userSpaceOnUse">
<stop stop-color="white" stop-opacity="0.65"/>
<stop offset="1" stop-color="white" stop-opacity="0"/>
</linearGradient>
<linearGradient id="paint15_linear_3310_240300" x1="676" y1="19.6104" x2="676" y2="111.515" gradientUnits="userSpaceOnUse">
<stop stop-color="white" stop-opacity="0.65"/>
<stop offset="1" stop-color="white" stop-opacity="0"/>
</linearGradient>
</defs>
</svg>
